<svg id="backgrounds" xmlns="http://www.w3.org/2000/svg" xmlns:xlink="http://www.w3.org/1999/xlink" width="109" height="40" viewBox="0 0 109 40">
  <defs>
    <clipPath id="clip-path">
      <path d="M33.91,31.51l-13.7,7.91a4.17,4.17,0,0,1-4.17,0L2.21,31.51A4.29,4.29,0,0,1,0,27.9V12.08A4.29,4.29,0,0,1,2.21,8.47L16,0.56a4.23,4.23,0,0,1,4.2,0L33.9,8.47A4.19,4.19,0,0,1,36,12.08V27.9A4.17,4.17,0,0,1,33.91,31.51Z" fill="#8089ff"/>
    </clipPath>
    <clipPath id="clip-path-2">
      <path d="M33.91,31.51l-13.7,7.91a4.17,4.17,0,0,1-4.17,0L2.21,31.51A4.29,4.29,0,0,1,0,27.9V12.08A4.29,4.29,0,0,1,2.21,8.47L16,0.56a4.23,4.23,0,0,1,4.2,0L33.9,8.47A4.19,4.19,0,0,1,36,12.08V27.9A4.17,4.17,0,0,1,33.91,31.51Z" fill="none"/>
    </clipPath>
    <radialGradient id="Dégradé_sans_nom_10" data-name="Dégradé sans nom 10" cx="17.79" cy="19.53" r="16.89" gradientTransform="matrix(0.88, 0.48, -0.87, 1.57, 19.16, -19.76)" gradientUnits="userSpaceOnUse">
      <stop offset="0.37" stop-opacity="0"/>
      <stop offset="1"/>
    </radialGradient>
  </defs>
  <g>
    <path d="M33.91,31.51l-13.7,7.91a4.17,4.17,0,0,1-4.17,0L2.21,31.51A4.29,4.29,0,0,1,0,27.9V12.08A4.29,4.29,0,0,1,2.21,8.47L16,0.56a4.23,4.23,0,0,1,4.2,0L33.9,8.47A4.19,4.19,0,0,1,36,12.08V27.9A4.17,4.17,0,0,1,33.91,31.51Z" fill="#8089ff"/>
    <g clip-path="url(#clip-path)">
      <path d="M17.47,2.1L4.24,12.75a4.48,4.48,0,0,0-1.62,4.18L5.23,33.71a4.47,4.47,0,0,0,.15.64L8.48,37a4.17,4.17,0,0,0,4.11.74l14.88-5.37a4.17,4.17,0,0,0,2.69-3.19l2.79-15.57a4.17,4.17,0,0,0-1.42-3.92l-9.84-8.3A4.47,4.47,0,0,0,17.47,2.1Z" fill="#8089ff"/>
      <g opacity="0.25">
        <path d="M17.47,2.1L4.24,12.75a4.48,4.48,0,0,0-1.62,4.18L5.23,33.71a4.47,4.47,0,0,0,.15.64L8.48,37a4.17,4.17,0,0,0,4.11.74l14.88-5.37a4.17,4.17,0,0,0,2.69-3.19l2.79-15.57a4.17,4.17,0,0,0-1.42-3.92l-9.84-8.3A4.47,4.47,0,0,0,17.47,2.1Z" fill="#8089ff"/>
      </g>
      <path d="M-3.61,26.76l9,7.59a4.47,4.47,0,0,1-.15-0.64L2.62,16.93a4.48,4.48,0,0,1,1.62-4.18L17.47,2.1a4.47,4.47,0,0,1,4.22-.75L19.44-.55a4.17,4.17,0,0,0-4.11-.74L0.45,4.08A4.17,4.17,0,0,0-2.24,7.27L-5,22.84A4.17,4.17,0,0,0-3.61,26.76Z" fill="#8089ff"/>
      <path d="M32.94,13.57L30.15,29.14a4.17,4.17,0,0,1-2.69,3.19L12.59,37.7A4.17,4.17,0,0,1,8.48,37l-3.1-2.61A4.48,4.48,0,0,0,8,37.2l15.84,6.13a4.48,4.48,0,0,0,4.43-.69L41.53,32a4.48,4.48,0,0,0,1.62-4.18L40.54,11a4.48,4.48,0,0,0-2.81-3.49L21.89,1.41l-0.21-.06,9.84,8.3A4.17,4.17,0,0,1,32.94,13.57Z" fill="#8089ff"/>
    </g>
  </g>
  <g>
    <path d="M53.43,26a5.33,5.33,0,0,1-2-.36,4.25,4.25,0,0,1-1.55-1,4.74,4.74,0,0,1-1-1.7,7,7,0,0,1-.35-2.32,6.3,6.3,0,0,1,.4-2.32A5,5,0,0,1,50,16.55a4.55,4.55,0,0,1,1.57-1.05,5.12,5.12,0,0,1,1.92-.36,6.85,6.85,0,0,1,1.16.09,7.09,7.09,0,0,1,.9.21,4.29,4.29,0,0,1,.62.24l0.33,0.18-0.42,1.2a2.39,2.39,0,0,0-.39-0.19l-0.58-.21a5.21,5.21,0,0,0-.71-0.17,4.41,4.41,0,0,0-.77-0.07,3.72,3.72,0,0,0-1.48.28,3.07,3.07,0,0,0-1.12.83,3.74,3.74,0,0,0-.71,1.31,5.67,5.67,0,0,0-.25,1.73,6.18,6.18,0,0,0,.22,1.69A3.71,3.71,0,0,0,51,23.58a2.92,2.92,0,0,0,1.09.85,3.61,3.61,0,0,0,1.52.3,5.57,5.57,0,0,0,1.66-.21,7.22,7.22,0,0,0,1-.37l0.38,1.2a2.16,2.16,0,0,1-.38.19,5.15,5.15,0,0,1-.67.22A8.59,8.59,0,0,1,53.43,26Z" fill="#1b252f"/>
    <path d="M66.76,24.51v1.26H60.51V15.38H62v9.13h4.8Z" fill="#1b252f"/>
    <path d="M70.54,15.38H72V25.77H70.54V15.38Z" fill="#1b252f"/>
    <path d="M76.82,25.77V15.38h6.34v1.25H78.28v3.09h4.35v1.22H78.28v3.6h5.27v1.25H76.82Z" fill="#1b252f"/>
    <path d="M94.76,25.77L94,24.53q-0.43-.69-0.92-1.43t-1-1.51q-0.53-.77-1.06-1.48t-1-1.34q-0.49-.63-0.91-1.11v8.11H87.64V15.38h1.15q0.7,0.75,1.51,1.75t1.59,2.05q0.79,1.06,1.48,2.08t1.18,1.82V15.38H96V25.77H94.76Z" fill="#1b252f"/>
    <path d="M107.75,15.38v1.26h-3.27v9.13H103V16.64H99.76V15.38h8Z" fill="#1b252f"/>
  </g>
  <g clip-path="url(#clip-path-2)">
    <path d="M17.47,2.1L4.24,12.75a4.48,4.48,0,0,0-1.62,4.18L5.23,33.71a4.47,4.47,0,0,0,.15.64L8.48,37a4.17,4.17,0,0,0,4.11.74l14.88-5.37a4.17,4.17,0,0,0,2.69-3.19l2.79-15.57a4.17,4.17,0,0,0-1.42-3.92l-9.84-8.3A4.47,4.47,0,0,0,17.47,2.1Z" fill="#8089ff"/>
    <g opacity="0.25">
      <path d="M17.47,2.1L4.24,12.75a4.48,4.48,0,0,0-1.62,4.18L5.23,33.71a4.47,4.47,0,0,0,.15.64L8.48,37a4.17,4.17,0,0,0,4.11.74l14.88-5.37a4.17,4.17,0,0,0,2.69-3.19l2.79-15.57a4.17,4.17,0,0,0-1.42-3.92l-9.84-8.3A4.47,4.47,0,0,0,17.47,2.1Z" fill="url(#Dégradé_sans_nom_10)"/>
    </g>
    <path d="M-3.61,26.76l9,7.59a4.47,4.47,0,0,1-.15-0.64L2.62,16.93a4.48,4.48,0,0,1,1.62-4.18L17.47,2.1a4.47,4.47,0,0,1,4.22-.75L19.44-.55a4.17,4.17,0,0,0-4.11-.74L0.45,4.08A4.17,4.17,0,0,0-2.24,7.27L-5,22.84A4.17,4.17,0,0,0-3.61,26.76Z" fill="#8089ff"/>
    <path d="M32.94,13.57L30.15,29.14a4.17,4.17,0,0,1-2.69,3.19L12.59,37.7A4.17,4.17,0,0,1,8.48,37l-3.1-2.61A4.48,4.48,0,0,0,8,37.2l15.84,6.13a4.48,4.48,0,0,0,4.43-.69L41.53,32a4.48,4.48,0,0,0,1.62-4.18L40.54,11a4.48,4.48,0,0,0-2.81-3.49L21.89,1.41l-0.21-.06,9.84,8.3A4.17,4.17,0,0,1,32.94,13.57Z" fill="#8089ff"/>
  </g>
  <path d="M20.84,27h2.78c-0.23,0-3.08-5.16-3.35-5.5a4.28,4.28,0,0,0,1.88-1.38,3.79,3.79,0,0,0,.65-2.3,4.1,4.1,0,0,0-1.62-3.55A8.29,8.29,0,0,0,16.53,13H13c-0.28,0,0,.52,0,0.79V27h3V22.1h0V16h0.9a4.23,4.23,0,0,1,2.11.4,1.44,1.44,0,0,1,.7,1.4,1.83,1.83,0,0,1-.76,1.61,5,5,0,0,1-2.48.58h0c-0.44,0-.59.07-0.41,0.49l1.1,1.69c0.22,0.27,2.14,3.29,2.86,4.46A1.07,1.07,0,0,0,20.84,27Z" fill="#fff"/>
</svg>
