<svg id="elements" xmlns="http://www.w3.org/2000/svg" xmlns:xlink="http://www.w3.org/1999/xlink" width="344.75" height="127.95" viewBox="0 0 344.75 127.95">
  <defs>
    <clipPath id="clip-path">
      <path d="M107.44,100.85L63.58,126.16a13.37,13.37,0,0,1-13.36,0L6.6,100.85A13.15,13.15,0,0,1,.15,89.28V38.66A13.14,13.14,0,0,1,6.6,27.1L50.32,1.79a13.25,13.25,0,0,1,13.29,0L107.47,27.1a13.36,13.36,0,0,1,6.68,11.56V89.28A13.38,13.38,0,0,1,107.44,100.85Z" fill="none"/>
    </clipPath>
    <radialGradient id="Dégradé_sans_nom_10" data-name="Dégradé sans nom 10" cx="55.81" cy="62.5" r="54.07" gradientTransform="matrix(0.88, 0.48, -0.87, 1.57, 61.18, -62.68)" gradientUnits="userSpaceOnUse">
      <stop offset="0.37" stop-opacity="0"/>
      <stop offset="1"/>
    </radialGradient>
  </defs>
  <title>modules_icons_screen</title>
  <g>
    <path d="M170.9,81.69a17,17,0,0,1-6.38-1.15,13.6,13.6,0,0,1-4.95-3.36,15.17,15.17,0,0,1-3.19-5.45,22.51,22.51,0,0,1-1.13-7.42,20.15,20.15,0,0,1,1.27-7.42A16.06,16.06,0,0,1,160,51.45a14.55,14.55,0,0,1,5-3.36,16.4,16.4,0,0,1,6.14-1.15,21.91,21.91,0,0,1,3.72.29,22.68,22.68,0,0,1,2.88.67,13.73,13.73,0,0,1,2,.77,11.12,11.12,0,0,1,1.06.57l-1.34,3.84a7.63,7.63,0,0,0-1.25-.62q-0.82-.34-1.85-0.67a16.68,16.68,0,0,0-2.26-.55,14.12,14.12,0,0,0-2.47-.21,11.92,11.92,0,0,0-4.75.91,9.83,9.83,0,0,0-3.6,2.64,12,12,0,0,0-2.28,4.2,18.16,18.16,0,0,0-.79,5.54,19.77,19.77,0,0,0,.7,5.42,11.87,11.87,0,0,0,2.09,4.2,9.34,9.34,0,0,0,3.48,2.71,11.55,11.55,0,0,0,4.87,1,17.82,17.82,0,0,0,5.33-.67,23.09,23.09,0,0,0,3.17-1.2l1.2,3.84a6.9,6.9,0,0,1-1.2.6,16.48,16.48,0,0,1-2.16.7A27.51,27.51,0,0,1,170.9,81.69Z" fill="#1b252f"/>
    <path d="M213.57,76.93v4h-20V47.7h4.65V76.93h15.36Z" fill="#1b252f"/>
    <path d="M225.67,47.7h4.65V81h-4.65V47.7Z" fill="#1b252f"/>
    <path d="M245.78,81V47.7h20.3v4H250.43v9.89h13.92v3.89H250.43V77h16.85v4h-21.5Z" fill="#1b252f"/>
    <path d="M303.18,81q-1.05-1.78-2.42-4t-3-4.58q-1.58-2.38-3.29-4.82t-3.38-4.73q-1.68-2.28-3.27-4.3T284.94,55V81h-4.56V47.7h3.7q2.26,2.4,4.82,5.59T294,59.87q2.52,3.38,4.75,6.65t3.77,5.81V47.7h4.56V81h-3.89Z" fill="#1b252f"/>
    <path d="M344.75,47.7v4H334.29V81h-4.66V51.74H319.17v-4h25.58Z" fill="#1b252f"/>
  </g>
  <g clip-path="url(#clip-path)">
    <path d="M54.79,6.71L12.45,40.8A14.34,14.34,0,0,0,7.27,54.17l8.35,53.71a14.29,14.29,0,0,0,.49,2L26,118.29a13.35,13.35,0,0,0,13.14,2.35l47.62-17.19a13.35,13.35,0,0,0,8.61-10.2l8.92-49.83a13.35,13.35,0,0,0-4.53-12.56L68.3,4.31A14.32,14.32,0,0,0,54.79,6.71Z" fill="#8089ff"/>
    <g opacity="0.25">
      <path d="M54.79,6.71L12.45,40.8A14.34,14.34,0,0,0,7.27,54.17l8.35,53.71a14.29,14.29,0,0,0,.49,2L26,118.29a13.35,13.35,0,0,0,13.14,2.35l47.62-17.19a13.35,13.35,0,0,0,8.61-10.2l8.92-49.83a13.35,13.35,0,0,0-4.53-12.56L68.3,4.31A14.32,14.32,0,0,0,54.79,6.71Z" fill="url(#Dégradé_sans_nom_10)"/>
    </g>
    <path d="M-12.67,85.65L16.1,109.93a14.29,14.29,0,0,1-.49-2L7.27,54.17A14.34,14.34,0,0,1,12.45,40.8L54.79,6.71A14.32,14.32,0,0,1,68.3,4.31L61.08-1.78A13.35,13.35,0,0,0,47.94-4.13L0.33,13.06a13.35,13.35,0,0,0-8.61,10.2L-17.2,73.09A13.35,13.35,0,0,0-12.67,85.65Z" fill="#8089ff"/>
    <path d="M104.31,43.42L95.39,93.25a13.35,13.35,0,0,1-8.61,10.2L39.16,120.65A13.35,13.35,0,0,1,26,118.29l-9.92-8.37a14.33,14.33,0,0,0,8.5,9.12L75.3,138.67a14.34,14.34,0,0,0,14.17-2.2l42.34-34.08A14.34,14.34,0,0,0,137,89l-8.35-53.71a14.34,14.34,0,0,0-9-11.17L69,4.51c-0.22-.08-0.44-0.13-0.66-0.21L99.78,30.87A13.35,13.35,0,0,1,104.31,43.42Z" fill="#8089ff"/>
  </g>
  <path d="M66.36,85.13A2.91,2.91,0,0,0,66.72,85h8.52c-0.75-1-9.84-16.4-10.72-17.48a13.63,13.63,0,0,0,6-4.38,12,12,0,0,0,2.09-7.35c0-4.86-1.72-8.23-5.17-10.54S59,42,52.56,42H41.3c-0.9,0-1.15.08-1.15,0.94V85h9V70h0.49l-0.49-8.19V49.91c1,0,3,0,3.73,0a15.39,15.39,0,0,1,7.19,1.34,4.8,4.8,0,0,1,2.46,4.52c0,2.2-.76,3.86-2.34,4.77S56,62,52.37,62H52.24c-1.42,0-1.9.61-1.32,2l3.51,5.61c0.71,0.85,6.85,10.57,9.14,14.33A3.43,3.43,0,0,0,66.36,85.13Z" fill="#fff"/>
</svg>
