<svg id="elements" xmlns="http://www.w3.org/2000/svg" xmlns:xlink="http://www.w3.org/1999/xlink" width="129.31" height="47.98" viewBox="0 0 129.31 47.98">
  <defs>
    <clipPath id="clip-path">
      <path d="M40.6,37.82L24.2,47.31a5,5,0,0,1-5,0L2.64,37.82A5.14,5.14,0,0,1,0,33.48v-19a5.15,5.15,0,0,1,2.66-4.34L19.17,0.67a5.08,5.08,0,0,1,5,0l16.36,9.49A4.93,4.93,0,0,1,43,14.5v19A4.92,4.92,0,0,1,40.6,37.82Z" fill="none"/>
    </clipPath>
    <radialGradient id="Dégradé_sans_nom_10" data-name="Dégradé sans nom 10" cx="21.35" cy="23.44" r="20.27" gradientTransform="matrix(0.88, 0.48, -0.87, 1.57, 22.99, -23.71)" gradientUnits="userSpaceOnUse">
      <stop offset="0.37" stop-opacity="0"/>
      <stop offset="1"/>
    </radialGradient>
  </defs>
  <title>modules_icons_screen</title>
  <g>
    <path d="M64.12,29.19a6.39,6.39,0,0,1-2.39-.43,5.1,5.1,0,0,1-1.85-1.26,5.69,5.69,0,0,1-1.2-2,8.44,8.44,0,0,1-.42-2.78,7.56,7.56,0,0,1,.48-2.78,6,6,0,0,1,1.29-2,5.46,5.46,0,0,1,1.89-1.26,6.15,6.15,0,0,1,2.3-.43,8.22,8.22,0,0,1,1.4.11,8.5,8.5,0,0,1,1.08.25,5.15,5.15,0,0,1,.75.29L67.82,17l-0.5,1.44a2.86,2.86,0,0,0-.47-0.23L66.16,18a6.26,6.26,0,0,0-.85-0.21,5.29,5.29,0,0,0-.93-0.08A4.47,4.47,0,0,0,62.6,18a3.68,3.68,0,0,0-1.35,1,4.48,4.48,0,0,0-.86,1.57,6.81,6.81,0,0,0-.3,2.08,7.41,7.41,0,0,0,.26,2,4.45,4.45,0,0,0,.78,1.57,3.5,3.5,0,0,0,1.31,1,4.33,4.33,0,0,0,1.83.36,6.68,6.68,0,0,0,2-.25A8.66,8.66,0,0,0,67.46,27l0.45,1.44a2.59,2.59,0,0,1-.45.23,6.18,6.18,0,0,1-.81.26A10.31,10.31,0,0,1,64.12,29.19Z" fill="#fff"/>
    <path d="M80.12,27.41v1.51H72.61V16.45h1.75v11h5.76Z" fill="#fff"/>
    <path d="M84.65,16.45H86.4V28.92H84.65V16.45Z" fill="#fff"/>
    <path d="M92.2,28.92V16.45h7.61v1.49H93.94v3.71h5.22v1.46H93.94v4.32h6.32v1.49H92.2Z" fill="#fff"/>
    <path d="M113.72,28.92q-0.4-.67-0.91-1.49t-1.11-1.72q-0.59-.89-1.23-1.81t-1.27-1.77q-0.63-.85-1.22-1.61t-1.1-1.33v9.74h-1.71V16.45h1.39q0.85,0.9,1.81,2.1T110.28,21q0.94,1.27,1.78,2.49t1.41,2.18V16.45h1.71V28.92h-1.46Z" fill="#fff"/>
    <path d="M129.31,16.45V18h-3.92v11h-1.75V18h-3.92V16.45h9.59Z" fill="#fff"/>
  </g>
  <g clip-path="url(#clip-path)">
    <path d="M21,2.52L5.09,15.3a5.38,5.38,0,0,0-1.94,5L6.27,40.45a5.36,5.36,0,0,0,.18.77l3.72,3.14a5,5,0,0,0,4.93.88L33,38.8A5,5,0,0,0,36.19,35l3.35-18.69a5,5,0,0,0-1.7-4.71L26,1.62A5.37,5.37,0,0,0,21,2.52Z" fill="#8089ff"/>
    <g opacity="0.25">
      <path d="M21,2.52L5.09,15.3a5.38,5.38,0,0,0-1.94,5L6.27,40.45a5.36,5.36,0,0,0,.18.77l3.72,3.14a5,5,0,0,0,4.93.88L33,38.8A5,5,0,0,0,36.19,35l3.35-18.69a5,5,0,0,0-1.7-4.71L26,1.62A5.37,5.37,0,0,0,21,2.52Z" fill="url(#Dégradé_sans_nom_10)"/>
    </g>
    <path d="M-4.33,32.12l10.79,9.1a5.36,5.36,0,0,1-.18-0.77L3.14,20.31a5.38,5.38,0,0,1,1.94-5L21,2.52A5.37,5.37,0,0,1,26,1.62L23.32-.67a5,5,0,0,0-4.93-.88L0.54,4.9A5,5,0,0,0-2.69,8.72L-6,27.41A5,5,0,0,0-4.33,32.12Z" fill="#8089ff"/>
    <path d="M39.53,16.28L36.19,35A5,5,0,0,1,33,38.8L15.1,45.24a5,5,0,0,1-4.93-.88L6.46,41.22a5.37,5.37,0,0,0,3.19,3.42l19,7.36A5.38,5.38,0,0,0,34,51.18L49.84,38.39a5.38,5.38,0,0,0,1.94-5L48.65,13.24a5.38,5.38,0,0,0-3.37-4.19l-19-7.36L26,1.62l11.81,10A5,5,0,0,1,39.53,16.28Z" fill="#8089ff"/>
  </g>
  <path d="M25,31.1A0.88,0.88,0,0,0,25.14,31h3.2c-0.28,0-3.69-6.08-4-6.49a5.05,5.05,0,0,0,2.25-1.61,4.46,4.46,0,0,0,.78-2.74,4.37,4.37,0,0,0-1.94-4A10.08,10.08,0,0,0,19.83,15H15.61c-0.34,0-.61,0-0.61.37V31h4V25.33h0V18h1.18a5.28,5.28,0,0,1,2.59.49,1.75,1.75,0,0,1,.87,1.69,1.53,1.53,0,0,1-.9,1.53,6.91,6.91,0,0,1-3,.29H19.71c-0.53,0-.71.49-0.49,1l1.32,2.23c0.27,0.32,2.57,4,3.43,5.4A1.29,1.29,0,0,0,25,31.1Z" fill="#fff"/>
</svg>
