<svg id="backgrounds" xmlns="http://www.w3.org/2000/svg" xmlns:xlink="http://www.w3.org/1999/xlink" width="125.91" height="47.98" viewBox="0 0 125.91 47.98">
  <defs>
    <clipPath id="clip-path">
      <path d="M40.48,10.16L24,0.67a5,5,0,0,0-5,0L2.54,10.16A5,5,0,0,0,0,14.5v19a5,5,0,0,0,2.54,4.34L19,47.31a5,5,0,0,0,5,0l16.46-9.49A5,5,0,0,0,43,33.48v-19A5,5,0,0,0,40.48,10.16Z" fill="#eb8244"/>
    </clipPath>
    <clipPath id="clip-path-2">
      <path d="M40.48,10.16L24,0.67a5,5,0,0,0-5,0L2.54,10.16A5,5,0,0,0,0,14.5v19a5,5,0,0,0,2.54,4.34L19,47.31a5,5,0,0,0,5,0l16.46-9.49A5,5,0,0,0,43,33.48v-19A5,5,0,0,0,40.48,10.16Z" fill="none"/>
    </clipPath>
    <radialGradient id="Dégradé_sans_nom_10" data-name="Dégradé sans nom 10" cx="21.11" cy="24.54" r="23.08" gradientTransform="translate(-15.14 4.04) rotate(-30.05) scale(1 1.46)" gradientUnits="userSpaceOnUse">
      <stop offset="0.37" stop-opacity="0"/>
      <stop offset="1"/>
    </radialGradient>
  </defs>
  <g>
    <path d="M40.48,10.16L24,0.67a5,5,0,0,0-5,0L2.54,10.16A5,5,0,0,0,0,14.5v19a5,5,0,0,0,2.54,4.34L19,47.31a5,5,0,0,0,5,0l16.46-9.49A5,5,0,0,0,43,33.48v-19A5,5,0,0,0,40.48,10.16Z" fill="#eb8244"/>
    <g clip-path="url(#clip-path)">
      <path d="M20.73,45.46L4.85,32.68a5.38,5.38,0,0,1-1.94-5L6,7.53a5.36,5.36,0,0,1,.18-0.77L9.94,3.62a5,5,0,0,1,4.93-.88L32.73,9.18A5,5,0,0,1,36,13L39.3,31.7a5,5,0,0,1-1.7,4.71l-11.81,10A5.37,5.37,0,0,1,20.73,45.46Z" fill="#eb8244"/>
      <g opacity="0.25">
        <path d="M20.73,45.46L4.85,32.68a5.38,5.38,0,0,1-1.94-5L6,7.53a5.36,5.36,0,0,1,.18-0.77L9.94,3.62a5,5,0,0,1,4.93-.88L32.73,9.18A5,5,0,0,1,36,13L39.3,31.7a5,5,0,0,1-1.7,4.71l-11.81,10A5.37,5.37,0,0,1,20.73,45.46Z" fill="#eb8244"/>
      </g>
      <path d="M-4.57,15.86L6.22,6.76A5.36,5.36,0,0,0,6,7.53L2.91,27.67a5.38,5.38,0,0,0,1.94,5L20.73,45.46a5.37,5.37,0,0,0,5.07.9l-2.7,2.28a5,5,0,0,1-4.93.88L0.31,43.08a5,5,0,0,1-3.23-3.83L-6.27,20.57A5,5,0,0,1-4.57,15.86Z" fill="#eb8244"/>
      <path d="M39.3,31.7L36,13a5,5,0,0,0-3.23-3.83L14.87,2.74a5,5,0,0,0-4.93.88L6.22,6.76A5.37,5.37,0,0,1,9.41,3.34L28.42-4a5.38,5.38,0,0,1,5.31.83L49.61,9.59a5.38,5.38,0,0,1,1.94,5L48.42,34.74a5.38,5.38,0,0,1-3.37,4.19L26,46.29l-0.25.08,11.81-10A5,5,0,0,0,39.3,31.7Z" fill="#eb8244"/>
    </g>
  </g>
  <g>
    <path d="M64.15,31.2a6.39,6.39,0,0,1-2.39-.43,5.1,5.1,0,0,1-1.85-1.26,5.69,5.69,0,0,1-1.2-2,8.44,8.44,0,0,1-.42-2.78,7.56,7.56,0,0,1,.48-2.78,6,6,0,0,1,1.29-2,5.46,5.46,0,0,1,1.89-1.26,6.15,6.15,0,0,1,2.3-.43,8.22,8.22,0,0,1,1.4.11,8.5,8.5,0,0,1,1.08.25,5.15,5.15,0,0,1,.75.29L67.86,19l-0.5,1.44a2.86,2.86,0,0,0-.47-0.23L66.19,20a6.26,6.26,0,0,0-.85-0.21,5.29,5.29,0,0,0-.93-0.08,4.47,4.47,0,0,0-1.78.34,3.68,3.68,0,0,0-1.35,1,4.48,4.48,0,0,0-.86,1.57,6.81,6.81,0,0,0-.3,2.08,7.41,7.41,0,0,0,.26,2,4.45,4.45,0,0,0,.78,1.57,3.5,3.5,0,0,0,1.31,1,4.33,4.33,0,0,0,1.83.36,6.68,6.68,0,0,0,2-.25A8.66,8.66,0,0,0,67.5,29l0.45,1.44a2.59,2.59,0,0,1-.45.23,6.18,6.18,0,0,1-.81.26A10.31,10.31,0,0,1,64.15,31.2Z" fill="#1b252f"/>
    <path d="M80.15,29.42v1.51H72.64V18.46h1.75v11h5.76Z" fill="#1b252f"/>
    <path d="M83.37,24.69a7.74,7.74,0,0,1,.48-2.83,5.83,5.83,0,0,1,1.3-2,5.36,5.36,0,0,1,1.91-1.23,6.45,6.45,0,0,1,2.31-.41,6.26,6.26,0,0,1,2.28.41,5.3,5.3,0,0,1,1.88,1.23,5.9,5.9,0,0,1,1.29,2,7.76,7.76,0,0,1,.48,2.83,7.75,7.75,0,0,1-.48,2.83,5.9,5.9,0,0,1-1.29,2,5.3,5.3,0,0,1-1.88,1.23,6.26,6.26,0,0,1-2.28.41,6.45,6.45,0,0,1-2.31-.41,5.36,5.36,0,0,1-1.91-1.23,5.83,5.83,0,0,1-1.3-2A7.74,7.74,0,0,1,83.37,24.69Zm1.84,0a6.93,6.93,0,0,0,.29,2.06,4.61,4.61,0,0,0,.82,1.58,3.58,3.58,0,0,0,1.3,1,4.08,4.08,0,0,0,1.72.35A4,4,0,0,0,91,29.32a3.61,3.61,0,0,0,1.29-1,4.62,4.62,0,0,0,.82-1.58,7.52,7.52,0,0,0,0-4.12,4.61,4.61,0,0,0-.82-1.57,3.6,3.6,0,0,0-1.29-1,4,4,0,0,0-1.71-.35,4.08,4.08,0,0,0-1.72.35,3.58,3.58,0,0,0-1.3,1,4.6,4.6,0,0,0-.82,1.57A6.93,6.93,0,0,0,85.21,24.69Z" fill="#1b252f"/>
    <path d="M105.22,31.2a5.46,5.46,0,0,1-2.12-.38,4,4,0,0,1-1.48-1,4.2,4.2,0,0,1-.85-1.56,6.5,6.5,0,0,1-.28-1.94V18.46h1.75v7.63a3.78,3.78,0,0,0,.83,2.72,2.88,2.88,0,0,0,2.16.85,3.43,3.43,0,0,0,1.22-.21,2.42,2.42,0,0,0,.94-0.64A2.94,2.94,0,0,0,108,27.7a5.33,5.33,0,0,0,.22-1.61V18.46H110v7.83a6.53,6.53,0,0,1-.28,1.94,4.17,4.17,0,0,1-.86,1.56,4.07,4.07,0,0,1-1.48,1A5.4,5.4,0,0,1,105.22,31.2Z" fill="#1b252f"/>
    <path d="M125.91,24.69a7.22,7.22,0,0,1-.5,2.82,5.21,5.21,0,0,1-1.42,2,6,6,0,0,1-2.2,1.17A9.66,9.66,0,0,1,119,31q-0.76,0-1.67-.06a9.8,9.8,0,0,1-1.65-.24V18.64a9.87,9.87,0,0,1,1.65-.24q0.91-.06,1.67-0.06a9.66,9.66,0,0,1,2.81.39,6,6,0,0,1,2.2,1.17,5.22,5.22,0,0,1,1.42,2A7.22,7.22,0,0,1,125.91,24.69Zm-6.79,4.82a4.93,4.93,0,0,0,3.71-1.27,4.91,4.91,0,0,0,1.22-3.56,4.91,4.91,0,0,0-1.22-3.55,4.93,4.93,0,0,0-3.71-1.27l-1.14,0-0.57,0v9.54l0.57,0Z" fill="#1b252f"/>
  </g>
  <g clip-path="url(#clip-path-2)">
    <path d="M20.73,45.46L4.85,32.68a5.38,5.38,0,0,1-1.94-5L6,7.53a5.36,5.36,0,0,1,.18-0.77L9.94,3.62a5,5,0,0,1,4.93-.88L32.73,9.18A5,5,0,0,1,36,13L39.3,31.7a5,5,0,0,1-1.7,4.71l-11.81,10A5.37,5.37,0,0,1,20.73,45.46Z" fill="#eb8244"/>
    <g opacity="0.25">
      <path d="M20.73,45.46L4.85,32.68a5.38,5.38,0,0,1-1.94-5L6,7.53a5.36,5.36,0,0,1,.18-0.77L9.94,3.62a5,5,0,0,1,4.93-.88L32.73,9.18A5,5,0,0,1,36,13L39.3,31.7a5,5,0,0,1-1.7,4.71l-11.81,10A5.37,5.37,0,0,1,20.73,45.46Z" fill="url(#Dégradé_sans_nom_10)"/>
    </g>
    <path d="M-4.57,15.86L6.22,6.76A5.36,5.36,0,0,0,6,7.53L2.91,27.67a5.38,5.38,0,0,0,1.94,5L20.73,45.46a5.37,5.37,0,0,0,5.07.9l-2.7,2.28a5,5,0,0,1-4.93.88L0.31,43.08a5,5,0,0,1-3.23-3.83L-6.27,20.57A5,5,0,0,1-4.57,15.86Z" fill="#eb8244"/>
    <path d="M39.3,31.7L36,13a5,5,0,0,0-3.23-3.83L14.87,2.74a5,5,0,0,0-4.93.88L6.22,6.76A5.37,5.37,0,0,1,9.41,3.34L28.42-4a5.38,5.38,0,0,1,5.31.83L49.61,9.59a5.38,5.38,0,0,1,1.94,5L48.42,34.74a5.38,5.38,0,0,1-3.37,4.19L26,46.29l-0.25.08,11.81-10A5,5,0,0,0,39.3,31.7Z" fill="#eb8244"/>
  </g>
  <path d="M25,31.11A0.87,0.87,0,0,0,25.14,31h3.2c-0.28,0-3.69-6.09-4-6.49a5.06,5.06,0,0,0,2.25-1.61,4.47,4.47,0,0,0,.78-2.74,4.36,4.36,0,0,0-1.94-3.94A10.08,10.08,0,0,0,19.83,15H15.61c-0.34,0-.61,0-0.61.35V31h4V25.33h0V18h1.18a5.29,5.29,0,0,1,2.59.48,1.75,1.75,0,0,1,.87,1.69,1.54,1.54,0,0,1-.9,1.53,6.89,6.89,0,0,1-3,.3H19.71c-0.53,0-.71.48-0.49,1l1.32,2.23c0.27,0.32,2.57,4,3.43,5.4A1.29,1.29,0,0,0,25,31.11Z" fill="#fff"/>
</svg>
