<svg id="backgrounds" xmlns="http://www.w3.org/2000/svg" xmlns:xlink="http://www.w3.org/1999/xlink" width="113" height="40" viewBox="0 0 113 40">
  <defs>
    <clipPath id="clip-path">
      <path d="M2.2,8.47L16,0.56a4.22,4.22,0,0,1,4.2,0L33.88,8.47A4.2,4.2,0,0,1,36,12.08V27.9a4.19,4.19,0,0,1-2.1,3.61L20.19,39.42a4.18,4.18,0,0,1-4.18,0L2.2,31.51A4.28,4.28,0,0,1,0,27.9V12.08A4.28,4.28,0,0,1,2.2,8.47Z" fill="#3dd1a5"/>
    </clipPath>
    <clipPath id="clip-path-2">
      <path d="M2.2,8.47L16,0.56a4.22,4.22,0,0,1,4.2,0L33.88,8.47A4.2,4.2,0,0,1,36,12.08V27.9a4.19,4.19,0,0,1-2.1,3.61L20.19,39.42a4.18,4.18,0,0,1-4.18,0L2.2,31.51A4.28,4.28,0,0,1,0,27.9V12.08A4.28,4.28,0,0,1,2.2,8.47Z" fill="none"/>
    </clipPath>
    <radialGradient id="Dégradé_sans_nom_10" data-name="Dégradé sans nom 10" cx="19.03" cy="19.71" r="19.45" gradientTransform="translate(20.01 -17.33) rotate(32.43) scale(1 1.61)" gradientUnits="userSpaceOnUse">
      <stop offset="0.37" stop-opacity="0"/>
      <stop offset="1"/>
    </radialGradient>
  </defs>
  <g>
    <path d="M2.2,8.47L16,0.56a4.22,4.22,0,0,1,4.2,0L33.88,8.47A4.2,4.2,0,0,1,36,12.08V27.9a4.19,4.19,0,0,1-2.1,3.61L20.19,39.42a4.18,4.18,0,0,1-4.18,0L2.2,31.51A4.28,4.28,0,0,1,0,27.9V12.08A4.28,4.28,0,0,1,2.2,8.47Z" fill="#3dd1a5"/>
    <g clip-path="url(#clip-path)">
      <path d="M18.75,37.88L32,27.23a4.48,4.48,0,0,0,1.62-4.18L31,6.27a4.47,4.47,0,0,0-.15-0.64L27.74,3a4.17,4.17,0,0,0-4.11-.74L8.75,7.65a4.17,4.17,0,0,0-2.69,3.19L3.27,26.41a4.17,4.17,0,0,0,1.42,3.92l9.84,8.3A4.47,4.47,0,0,0,18.75,37.88Z" fill="#3dd1a5"/>
      <g opacity="0.25">
        <path d="M18.75,37.88L32,27.23a4.48,4.48,0,0,0,1.62-4.18L31,6.27a4.47,4.47,0,0,0-.15-0.64L27.74,3a4.17,4.17,0,0,0-4.11-.74L8.75,7.65a4.17,4.17,0,0,0-2.69,3.19L3.27,26.41a4.17,4.17,0,0,0,1.42,3.92l9.84,8.3A4.47,4.47,0,0,0,18.75,37.88Z" fill="#3dd1a5"/>
      </g>
      <path d="M39.83,13.22l-9-7.59a4.47,4.47,0,0,1,.15.64L33.6,23.05A4.48,4.48,0,0,1,32,27.23L18.75,37.88a4.47,4.47,0,0,1-4.22.75l2.25,1.9a4.17,4.17,0,0,0,4.11.74L35.77,35.9a4.17,4.17,0,0,0,2.69-3.19l2.79-15.57A4.17,4.17,0,0,0,39.83,13.22Z" fill="#3dd1a5"/>
      <path d="M3.27,26.41L6.06,10.84A4.17,4.17,0,0,1,8.75,7.65L23.63,2.28A4.17,4.17,0,0,1,27.74,3l3.1,2.61a4.48,4.48,0,0,0-2.66-2.85L12.34-3.35a4.48,4.48,0,0,0-4.43.69L-5.32,8a4.48,4.48,0,0,0-1.62,4.18l2.61,16.78a4.48,4.48,0,0,0,2.81,3.49l15.84,6.13,0.21,0.06-9.84-8.3A4.17,4.17,0,0,1,3.27,26.41Z" fill="#3dd1a5"/>
    </g>
  </g>
  <g>
    <path d="M52.37,24.91q2.28,0,2.28-1.56a1.56,1.56,0,0,0-.2-0.82,2,2,0,0,0-.55-0.58,3.8,3.8,0,0,0-.79-0.43l-0.94-.36a9.69,9.69,0,0,1-1.08-.44,3.79,3.79,0,0,1-.88-0.58,2.48,2.48,0,0,1-.59-0.8,2.63,2.63,0,0,1-.22-1.12,2.61,2.61,0,0,1,.93-2.13,3.92,3.92,0,0,1,2.56-.77,6.78,6.78,0,0,1,1.72.2,3.94,3.94,0,0,1,1.13.44l-0.47,1.18a4.13,4.13,0,0,0-.94-0.38,5.05,5.05,0,0,0-1.45-.19,3.23,3.23,0,0,0-.78.09,2,2,0,0,0-.63.27,1.34,1.34,0,0,0-.43.46,1.3,1.3,0,0,0-.16.65,1.39,1.39,0,0,0,.16.7,1.63,1.63,0,0,0,.47.5,4,4,0,0,0,.7.4q0.4,0.18.88,0.36,0.68,0.27,1.24.54a4,4,0,0,1,1,.64,2.59,2.59,0,0,1,.64.89,3.13,3.13,0,0,1,.23,1.25,2.45,2.45,0,0,1-1,2.1,4.68,4.68,0,0,1-2.81.73,7.21,7.21,0,0,1-1.13-.08,8.43,8.43,0,0,1-.92-0.19,5.36,5.36,0,0,1-.7-0.24l-0.46-.22,0.44-1.2a6.6,6.6,0,0,0,1,.43A5.4,5.4,0,0,0,52.37,24.91Z" fill="#1b252f"/>
    <path d="M67.13,15.55v1.26H63.86v9.13H62.41V16.81H59.14V15.55h8Z" fill="#1b252f"/>
    <path d="M74.78,26.17A4.55,4.55,0,0,1,73,25.85,3.31,3.31,0,0,1,71.78,25a3.5,3.5,0,0,1-.71-1.3,5.42,5.42,0,0,1-.23-1.62V15.55h1.45v6.36A3.15,3.15,0,0,0,73,24.17a2.4,2.4,0,0,0,1.8.7,2.86,2.86,0,0,0,1-.17,2,2,0,0,0,.79-0.53,2.45,2.45,0,0,0,.51-0.92,4.44,4.44,0,0,0,.18-1.34V15.55h1.45v6.52a5.44,5.44,0,0,1-.23,1.62,3.48,3.48,0,0,1-.72,1.3,3.39,3.39,0,0,1-1.23.86A4.5,4.5,0,0,1,74.78,26.17Z" fill="#1b252f"/>
    <path d="M92,20.74a6,6,0,0,1-.42,2.35,4.34,4.34,0,0,1-1.18,1.65,5,5,0,0,1-1.83,1,8,8,0,0,1-2.34.32q-0.63,0-1.39-.05a8.16,8.16,0,0,1-1.37-.2V15.7a8.23,8.23,0,0,1,1.37-.2q0.76-.05,1.39-0.05a8,8,0,0,1,2.34.32,5,5,0,0,1,1.83,1,4.35,4.35,0,0,1,1.18,1.65A6,6,0,0,1,92,20.74Zm-5.65,4a4.11,4.11,0,0,0,3.09-1.06,4.09,4.09,0,0,0,1-3,4.09,4.09,0,0,0-1-3,4.11,4.11,0,0,0-3.09-1.06l-1,0-0.47,0v7.95l0.47,0Z" fill="#1b252f"/>
    <path d="M96.42,15.55h1.45V25.94H96.42V15.55Z" fill="#1b252f"/>
    <path d="M102.29,20.74a6.45,6.45,0,0,1,.4-2.36,4.86,4.86,0,0,1,1.08-1.7,4.46,4.46,0,0,1,1.59-1,5.38,5.38,0,0,1,1.93-.35,5.21,5.21,0,0,1,1.9.35,4.42,4.42,0,0,1,1.57,1,4.91,4.91,0,0,1,1.07,1.7,6.46,6.46,0,0,1,.4,2.36,6.46,6.46,0,0,1-.4,2.36,4.92,4.92,0,0,1-1.07,1.7,4.42,4.42,0,0,1-1.57,1,5.21,5.21,0,0,1-1.9.35,5.38,5.38,0,0,1-1.93-.35,4.46,4.46,0,0,1-1.59-1,4.86,4.86,0,0,1-1.08-1.7A6.45,6.45,0,0,1,102.29,20.74Zm1.53,0a5.77,5.77,0,0,0,.24,1.72,3.84,3.84,0,0,0,.68,1.31,3,3,0,0,0,1.08.83,3.4,3.4,0,0,0,1.43.29,3.35,3.35,0,0,0,1.43-.29,3,3,0,0,0,1.07-.83,3.85,3.85,0,0,0,.68-1.31,6.27,6.27,0,0,0,0-3.43,3.84,3.84,0,0,0-.68-1.31,3,3,0,0,0-1.07-.83,3.35,3.35,0,0,0-1.43-.29,3.4,3.4,0,0,0-1.43.29,3,3,0,0,0-1.08.83,3.83,3.83,0,0,0-.68,1.31A5.78,5.78,0,0,0,103.82,20.74Z" fill="#1b252f"/>
  </g>
  <g clip-path="url(#clip-path-2)">
    <path d="M18.75,37.88L32,27.23a4.48,4.48,0,0,0,1.62-4.18L31,6.27a4.47,4.47,0,0,0-.15-0.64L27.74,3a4.17,4.17,0,0,0-4.11-.74L8.75,7.65a4.17,4.17,0,0,0-2.69,3.19L3.27,26.41a4.17,4.17,0,0,0,1.42,3.92l9.84,8.3A4.47,4.47,0,0,0,18.75,37.88Z" fill="#3dd1a5"/>
    <g opacity="0.25">
      <path d="M18.75,37.88L32,27.23a4.48,4.48,0,0,0,1.62-4.18L31,6.27a4.47,4.47,0,0,0-.15-0.64L27.74,3a4.17,4.17,0,0,0-4.11-.74L8.75,7.65a4.17,4.17,0,0,0-2.69,3.19L3.27,26.41a4.17,4.17,0,0,0,1.42,3.92l9.84,8.3A4.47,4.47,0,0,0,18.75,37.88Z" fill="url(#Dégradé_sans_nom_10)"/>
    </g>
    <path d="M39.83,13.22l-9-7.59a4.47,4.47,0,0,1,.15.64L33.6,23.05A4.48,4.48,0,0,1,32,27.23L18.75,37.88a4.47,4.47,0,0,1-4.22.75l2.25,1.9a4.17,4.17,0,0,0,4.11.74L35.77,35.9a4.17,4.17,0,0,0,2.69-3.19l2.79-15.57A4.17,4.17,0,0,0,39.83,13.22Z" fill="#3dd1a5"/>
    <path d="M3.27,26.41L6.06,10.84A4.17,4.17,0,0,1,8.75,7.65L23.63,2.28A4.17,4.17,0,0,1,27.74,3l3.1,2.61a4.48,4.48,0,0,0-2.66-2.85L12.34-3.35a4.48,4.48,0,0,0-4.43.69L-5.32,8a4.48,4.48,0,0,0-1.62,4.18l2.61,16.78a4.48,4.48,0,0,0,2.81,3.49l15.84,6.13,0.21,0.06-9.84-8.3A4.17,4.17,0,0,1,3.27,26.41Z" fill="#3dd1a5"/>
  </g>
  <path d="M20.84,27h2.78c-0.23,0-3.08-5.16-3.35-5.5a4.28,4.28,0,0,0,1.88-1.38,3.79,3.79,0,0,0,.65-2.3,4.1,4.1,0,0,0-1.62-3.55A8.29,8.29,0,0,0,16.53,13H13c-0.28,0,0,.52,0,0.79V27h3V22.1h0V16h0.9a4.23,4.23,0,0,1,2.11.4,1.44,1.44,0,0,1,.7,1.4,1.83,1.83,0,0,1-.76,1.61,5,5,0,0,1-2.48.58h0c-0.44,0-.59.07-0.41,0.49l1.1,1.69c0.22,0.27,2.14,3.29,2.86,4.46A1.07,1.07,0,0,0,20.84,27Z" fill="#fff"/>
</svg>
