<svg id="backgrounds" xmlns="http://www.w3.org/2000/svg" xmlns:xlink="http://www.w3.org/1999/xlink" width="134.67" height="47.98" viewBox="0 0 134.67 47.98">
  <defs>
    <clipPath id="clip-path">
      <path d="M2.64,10.16L19.14,0.67a5.07,5.07,0,0,1,5,0l16.38,9.49A5,5,0,0,1,43,14.5v19a4.93,4.93,0,0,1-2.42,4.34l-16.4,9.49a5,5,0,0,1-5,0L2.63,37.82A5.13,5.13,0,0,1,0,33.48v-19A5.14,5.14,0,0,1,2.64,10.16Z" fill="#3dd1a5"/>
    </clipPath>
    <clipPath id="clip-path-2">
      <path d="M2.64,10.16L19.14,0.67a5.07,5.07,0,0,1,5,0l16.38,9.49A5,5,0,0,1,43,14.5v19a4.93,4.93,0,0,1-2.42,4.34l-16.4,9.49a5,5,0,0,1-5,0L2.63,37.82A5.13,5.13,0,0,1,0,33.48v-19A5.14,5.14,0,0,1,2.64,10.16Z" fill="none"/>
    </clipPath>
    <radialGradient id="Dégradé_sans_nom_10" data-name="Dégradé sans nom 10" cx="22.83" cy="23.65" r="23.34" gradientTransform="translate(24.02 -20.79) rotate(32.43) scale(1 1.61)" gradientUnits="userSpaceOnUse">
      <stop offset="0.37" stop-opacity="0"/>
      <stop offset="1"/>
    </radialGradient>
  </defs>
  <g>
    <path d="M2.64,10.16L19.14,0.67a5.07,5.07,0,0,1,5,0l16.38,9.49A5,5,0,0,1,43,14.5v19a4.93,4.93,0,0,1-2.42,4.34l-16.4,9.49a5,5,0,0,1-5,0L2.63,37.82A5.13,5.13,0,0,1,0,33.48v-19A5.14,5.14,0,0,1,2.64,10.16Z" fill="#3dd1a5"/>
    <g clip-path="url(#clip-path)">
      <path d="M22.5,45.46L38.38,32.68a5.38,5.38,0,0,0,1.94-5L37.19,7.53A5.36,5.36,0,0,0,37,6.76L33.29,3.62a5,5,0,0,0-4.93-.88L10.5,9.18A5,5,0,0,0,7.28,13L3.93,31.7a5,5,0,0,0,1.7,4.71l11.81,10A5.37,5.37,0,0,0,22.5,45.46Z" fill="#3dd1a5"/>
      <g opacity="0.25">
        <path d="M22.5,45.46L38.38,32.68a5.38,5.38,0,0,0,1.94-5L37.19,7.53A5.36,5.36,0,0,0,37,6.76L33.29,3.62a5,5,0,0,0-4.93-.88L10.5,9.18A5,5,0,0,0,7.28,13L3.93,31.7a5,5,0,0,0,1.7,4.71l11.81,10A5.37,5.37,0,0,0,22.5,45.46Z" fill="#3dd1a5"/>
      </g>
      <path d="M47.8,15.86L37,6.76a5.36,5.36,0,0,1,.18.77l3.13,20.14a5.38,5.38,0,0,1-1.94,5L22.5,45.46a5.37,5.37,0,0,1-5.07.9l2.7,2.28a5,5,0,0,0,4.93.88l17.86-6.45a5,5,0,0,0,3.23-3.83L49.5,20.57A5,5,0,0,0,47.8,15.86Z" fill="#3dd1a5"/>
      <path d="M3.93,31.7L7.28,13A5,5,0,0,1,10.5,9.18L28.36,2.74a5,5,0,0,1,4.93.88L37,6.76a5.37,5.37,0,0,0-3.19-3.42L14.81-4A5.38,5.38,0,0,0,9.5-3.2L-6.38,9.59a5.38,5.38,0,0,0-1.94,5l3.13,20.14a5.38,5.38,0,0,0,3.37,4.19l19,7.36,0.25,0.08-11.81-10A5,5,0,0,1,3.93,31.7Z" fill="#3dd1a5"/>
    </g>
  </g>
  <g>
    <path d="M62.85,29.69q2.74,0,2.74-1.87a1.87,1.87,0,0,0-.24-1,2.35,2.35,0,0,0-.66-0.7,4.56,4.56,0,0,0-.94-0.51l-1.12-.43a11.63,11.63,0,0,1-1.3-.53,4.55,4.55,0,0,1-1.06-.7,3,3,0,0,1-.71-1,3.16,3.16,0,0,1-.26-1.35,3.13,3.13,0,0,1,1.12-2.56,4.71,4.71,0,0,1,3.08-.92,8.13,8.13,0,0,1,2.06.24,4.73,4.73,0,0,1,1.36.53l-0.56,1.42a5,5,0,0,0-1.12-.46,6.06,6.06,0,0,0-1.74-.22,3.87,3.87,0,0,0-.94.11,2.41,2.41,0,0,0-.76.32,1.61,1.61,0,0,0-.51.55,1.56,1.56,0,0,0-.19.78,1.66,1.66,0,0,0,.2.85,2,2,0,0,0,.56.6,4.77,4.77,0,0,0,.84.48q0.48,0.22,1.05.43,0.81,0.32,1.49.65a4.82,4.82,0,0,1,1.17.77,3.11,3.11,0,0,1,.77,1.07,3.76,3.76,0,0,1,.27,1.5,2.94,2.94,0,0,1-1.2,2.52,5.61,5.61,0,0,1-3.38.88,8.65,8.65,0,0,1-1.36-.1,10.12,10.12,0,0,1-1.11-.23,6.43,6.43,0,0,1-.84-0.29L59,30.32l0.52-1.44a7.92,7.92,0,0,0,1.26.52A6.48,6.48,0,0,0,62.85,29.69Z" fill="#1b252f"/>
    <path d="M80.56,18.46V20H76.64v11H74.89V20H71V18.46h9.59Z" fill="#1b252f"/>
    <path d="M89.74,31.2a5.46,5.46,0,0,1-2.12-.38,4,4,0,0,1-1.48-1,4.2,4.2,0,0,1-.85-1.56A6.5,6.5,0,0,1,85,26.29V18.46h1.75v7.63a3.78,3.78,0,0,0,.83,2.72,2.88,2.88,0,0,0,2.16.85A3.43,3.43,0,0,0,91,29.45a2.42,2.42,0,0,0,.94-0.64,2.94,2.94,0,0,0,.61-1.11,5.33,5.33,0,0,0,.22-1.61V18.46h1.75v7.83a6.53,6.53,0,0,1-.28,1.94,4.17,4.17,0,0,1-.86,1.56,4.07,4.07,0,0,1-1.48,1A5.4,5.4,0,0,1,89.74,31.2Z" fill="#1b252f"/>
    <path d="M110.43,24.69a7.22,7.22,0,0,1-.5,2.82,5.21,5.21,0,0,1-1.42,2,6,6,0,0,1-2.2,1.17,9.66,9.66,0,0,1-2.81.39q-0.76,0-1.67-.06a9.8,9.8,0,0,1-1.65-.24V18.64a9.87,9.87,0,0,1,1.65-.24q0.91-.06,1.67-0.06a9.66,9.66,0,0,1,2.81.39,6,6,0,0,1,2.2,1.17,5.22,5.22,0,0,1,1.42,2A7.22,7.22,0,0,1,110.43,24.69Zm-6.79,4.82a4.93,4.93,0,0,0,3.71-1.27,4.91,4.91,0,0,0,1.22-3.56,4.91,4.91,0,0,0-1.22-3.55,4.93,4.93,0,0,0-3.71-1.27l-1.14,0-0.57,0v9.54l0.57,0Z" fill="#1b252f"/>
    <path d="M115.72,18.46h1.75V30.93h-1.75V18.46Z" fill="#1b252f"/>
    <path d="M122.76,24.69a7.74,7.74,0,0,1,.48-2.83,5.83,5.83,0,0,1,1.3-2,5.36,5.36,0,0,1,1.91-1.23,6.45,6.45,0,0,1,2.31-.41,6.26,6.26,0,0,1,2.28.41,5.3,5.3,0,0,1,1.88,1.23,5.9,5.9,0,0,1,1.29,2,7.76,7.76,0,0,1,.48,2.83,7.75,7.75,0,0,1-.48,2.83,5.9,5.9,0,0,1-1.29,2A5.3,5.3,0,0,1,131,30.79a6.26,6.26,0,0,1-2.28.41,6.45,6.45,0,0,1-2.31-.41,5.36,5.36,0,0,1-1.91-1.23,5.83,5.83,0,0,1-1.3-2A7.74,7.74,0,0,1,122.76,24.69Zm1.84,0a6.93,6.93,0,0,0,.29,2.06,4.61,4.61,0,0,0,.82,1.58,3.58,3.58,0,0,0,1.3,1,4.08,4.08,0,0,0,1.72.35,4,4,0,0,0,1.71-.35,3.61,3.61,0,0,0,1.29-1,4.62,4.62,0,0,0,.82-1.58,7.52,7.52,0,0,0,0-4.12,4.61,4.61,0,0,0-.82-1.57,3.6,3.6,0,0,0-1.29-1,4,4,0,0,0-1.71-.35,4.08,4.08,0,0,0-1.72.35,3.58,3.58,0,0,0-1.3,1,4.6,4.6,0,0,0-.82,1.57A6.93,6.93,0,0,0,124.59,24.69Z" fill="#1b252f"/>
  </g>
  <g clip-path="url(#clip-path-2)">
    <path d="M22.5,45.46L38.38,32.68a5.38,5.38,0,0,0,1.94-5L37.19,7.53A5.36,5.36,0,0,0,37,6.76L33.29,3.62a5,5,0,0,0-4.93-.88L10.5,9.18A5,5,0,0,0,7.28,13L3.93,31.7a5,5,0,0,0,1.7,4.71l11.81,10A5.37,5.37,0,0,0,22.5,45.46Z" fill="#3dd1a5"/>
    <g opacity="0.25">
      <path d="M22.5,45.46L38.38,32.68a5.38,5.38,0,0,0,1.94-5L37.19,7.53A5.36,5.36,0,0,0,37,6.76L33.29,3.62a5,5,0,0,0-4.93-.88L10.5,9.18A5,5,0,0,0,7.28,13L3.93,31.7a5,5,0,0,0,1.7,4.71l11.81,10A5.37,5.37,0,0,0,22.5,45.46Z" fill="url(#Dégradé_sans_nom_10)"/>
    </g>
    <path d="M47.8,15.86L37,6.76a5.36,5.36,0,0,1,.18.77l3.13,20.14a5.38,5.38,0,0,1-1.94,5L22.5,45.46a5.37,5.37,0,0,1-5.07.9l2.7,2.28a5,5,0,0,0,4.93.88l17.86-6.45a5,5,0,0,0,3.23-3.83L49.5,20.57A5,5,0,0,0,47.8,15.86Z" fill="#3dd1a5"/>
    <path d="M3.93,31.7L7.28,13A5,5,0,0,1,10.5,9.18L28.36,2.74a5,5,0,0,1,4.93.88L37,6.76a5.37,5.37,0,0,0-3.19-3.42L14.81-4A5.38,5.38,0,0,0,9.5-3.2L-6.38,9.59a5.38,5.38,0,0,0-1.94,5l3.13,20.14a5.38,5.38,0,0,0,3.37,4.19l19,7.36,0.25,0.08-11.81-10A5,5,0,0,1,3.93,31.7Z" fill="#3dd1a5"/>
  </g>
  <path d="M25,31.11A0.87,0.87,0,0,0,25.14,31h3.2c-0.28,0-3.69-6.09-4-6.49a5.06,5.06,0,0,0,2.25-1.61,4.47,4.47,0,0,0,.78-2.74,4.36,4.36,0,0,0-1.94-3.94A10.08,10.08,0,0,0,19.83,15H15.61c-0.34,0-.61,0-0.61.35V31h4V25.33h0V18h1.18a5.29,5.29,0,0,1,2.59.48,1.75,1.75,0,0,1,.87,1.69,1.54,1.54,0,0,1-.9,1.53,6.89,6.89,0,0,1-3,.3H19.71c-0.53,0-.71.48-0.49,1l1.32,2.23c0.27,0.32,2.57,4,3.43,5.4A1.29,1.29,0,0,0,25,31.11Z" fill="#fff"/>
</svg>
