<svg style="fill:#575757;" xmlns="http://www.w3.org/2000/svg" viewBox="0 0 20 20"><path d="m 10.00,4.48 c -1.24,0 -2.24,-1.00 -2.24,-2.24 C 7.76,1.00 8.76,0 10.00,0 c 1.24,0 2.24,1.00 2.24,2.24 0,1.24 -1.00,2.24 -2.24,2.24 z m 0,7.76 c -1.24,0 -2.24,-1.00 -2.24,-2.24 0,-1.24 1.00,-2.24 2.24,-2.24 1.24,0 2.24,1.00 2.24,2.24 0,1.24 -1.00,2.24 -2.24,2.24 z m 0,7.76 c -1.24,0 -2.24,-1.00 -2.24,-2.24 0,-1.24 1.00,-2.24 2.24,-2.24 1.24,0 2.24,1.00 2.24,2.24 C 12.24,19 11.24,20 10.00,20 Z"></path></svg>
