<?xml version="1.0" encoding="UTF-8"?>
<svg width="16px" height="16px" viewBox="0 0 16 16" version="1.1" xmlns="http://www.w3.org/2000/svg" xmlns:xlink="http://www.w3.org/1999/xlink">
    <g id="castingIcon" stroke="none" stroke-width="1" fill="none" fill-rule="evenodd">
        <g>
            <circle id="Oval-2" fill="#FF6600" cx="8" cy="8" r="8"></circle>
            <path d="M13.8403831,8.93868061 C13.8403831,8.93843464 13.8408614,8.93794269 13.8408614,8.93769671 C13.8372745,8.93449902 13.832492,8.92957949 13.8289051,8.92588985 C13.8265138,8.92343009 13.825079,8.92170825 13.825079,8.92170825 C13.6517122,8.74706509 13.1129597,8.25265276 12.316907,7.78431392 C12.6060111,7.77718061 12.8128557,7.72306583 12.8984631,7.58261337 C13.0675257,7.32704401 12.4883608,6.46465117 11.4043995,5.87504602 C11.4043995,5.87504602 11.1965984,5.74394066 10.929733,5.63054559 C11.1635989,5.31397412 11.1932506,4.54013273 10.9749279,3.69397432 C10.707106,2.65546246 10.1666797,1.90129918 9.76829461,2.01051265 C9.36990953,2.11923416 9.2639764,3.04927049 9.53227656,4.08778235 C9.57292809,4.24569912 9.62027518,4.39722051 9.67192655,4.54013273 C9.52295061,4.3755746 9.34958376,4.21101647 9.15613026,4.05457555 C8.33377355,3.3914235 7.46143935,3.12429325 7.20724767,3.45759112 C6.95257774,3.79162691 7.41289663,4.59965899 8.23453597,5.26281105 C8.57720453,5.53879644 8.92824252,5.74640042 9.2398246,5.87037247 C9.23575945,5.87553797 9.23217255,5.8804575 9.22954216,5.88439312 C9.02198018,6.16603596 8.75917994,6.43783975 8.4435327,6.68848958 C7.42939638,7.4972596 6.19574174,7.84187237 5.33536388,7.66747519 C5.20264857,7.51767563 5.01206459,7.42346672 4.79972008,7.42346672 C4.39894374,7.42346672 4.07420968,7.75774848 4.07420968,8.17000473 C4.07420968,8.46640615 4.24255488,8.72172953 4.48622498,8.84225791 C3.86473469,9.87658818 3.42761109,10.8349118 3.09929013,11.6643438 L3.09929013,11.6638518 C3.09929013,11.6638518 3.09857275,11.6655737 3.09785537,11.6680334 C3.0945076,11.6766426 3.09068157,11.6854978 3.0873338,11.6945989 C3.08757293,11.6945989 3.08757293,11.6950908 3.08781205,11.6955828 C3.03974759,11.8298858 2.87116326,12.3393027 3.18848439,12.0030531 L3.18848439,12.0025612 C4.06153597,11.0727708 5.96665837,9.35093686 8.78380999,8.73943983 C10.7680833,8.31390086 12.5512511,8.71016865 13.7636235,9.20458098 C13.7636235,9.20458098 13.7638626,9.20408902 13.7638626,9.20384305 C14.2000297,9.35954603 13.9121212,9.01911486 13.8403831,8.93868061 Z M11.5114879,6.93167283 C11.3405124,6.93167283 11.202058,6.78949854 11.202058,6.61411745 C11.202058,6.43873636 11.3405124,6.29631609 11.5114879,6.29631609 C11.6817461,6.29631609 11.8199614,6.43873636 11.8199614,6.61411745 C11.8199614,6.78949854 11.6817461,6.93167283 11.5114879,6.93167283 Z" id="Rabbit" fill="#FFFFFF"></path>
        </g>
    </g>
</svg>
