<?xml version="1.0" encoding="UTF-8"?>
<svg width="30px" height="30px" viewBox="0 0 30 30" version="1.1" xmlns="http://www.w3.org/2000/svg" xmlns:xlink="http://www.w3.org/1999/xlink">
    <defs>
        <rect id="path-1" x="0" y="0" width="30" height="30" rx="3"></rect>
        <mask id="mask-2" maskContentUnits="userSpaceOnUse" maskUnits="objectBoundingBox" x="0" y="0" width="30" height="30" fill="white">
            <use xlink:href="#path-1"></use>
        </mask>
    </defs>
    <g id="export" stroke="none" stroke-width="1" fill="none" fill-rule="evenodd">
        <g id="tabIcon">
            <use id="Rectangle-8" stroke="#D6D6D6" mask="url(#mask-2)" stroke-width="2" stroke-dasharray="2,1,2,1" xlink:href="#path-1"></use>
            <path d="M15,21 C14.7715862,21 14.5862069,20.8146207 14.5862069,20.5862069 L14.5862069,15.4137931 L9.4137931,15.4137931 C9.18537931,15.4137931 9,15.2284138 9,15 C9,14.7715862 9.18537931,14.5862069 9.4137931,14.5862069 L14.5862069,14.5862069 L14.5862069,9.4137931 C14.5862069,9.18537931 14.7715862,9 15,9 C15.2284138,9 15.4137931,9.18537931 15.4137931,9.4137931 L15.4137931,14.5862069 L20.5862069,14.5862069 C20.8146207,14.5862069 21,14.7715862 21,15 C21,15.2284138 20.8146207,15.4137931 20.5862069,15.4137931 L15.4137931,15.4137931 L15.4137931,20.5862069 C15.4137931,20.8146207 15.2284138,21 15,21 Z" id="Page-1" fill="#D6D6D6"></path>
        </g>
    </g>
</svg>
