<?xml version="1.0" encoding="UTF-8"?>
<svg width="74px" height="28px" viewBox="0 0 74 28" version="1.1" xmlns="http://www.w3.org/2000/svg" xmlns:xlink="http://www.w3.org/1999/xlink">
    <g id="Extension-+-Flows" stroke="none" stroke-width="1" fill="none" fill-rule="evenodd">
        <g id="Currently-in-a-Room---No-other-tabs-open" transform="translate(-1268.000000, -55.000000)" fill="#FF6600">
            <g id="Extension" transform="translate(1185.000000, 38.000000)">
                <g id="Header" transform="translate(0.000000, 19.000000)">
                    <path d="M146.269286,15.7428708 L146.269286,9.78187919 L144.460441,9.78187919 L144.460441,7.59942987 L146.269286,7.59942987 L146.269286,2.88879978 L148.557422,2.88879978 L148.557422,7.59942987 L152.308216,7.59942987 L152.308216,9.78187919 L148.557422,9.78187919 L148.557422,15.6894316 C148.557422,16.674368 149.408574,17.6055701 150.366267,17.6055701 L152.414463,17.6055701 L152.999999,19.787724 L150.312849,19.787724 C148.078427,19.787724 146.269286,18.004741 146.269286,15.7428708 Z M139.619144,7.5991346 L141.907279,7.5991346 L141.907279,19.787724 L139.619144,19.787724 L139.619144,7.5991346 Z M139.246691,4.1131798 C139.246691,3.2879707 139.911912,2.62278425 140.763064,2.62278425 C141.58795,2.62278425 142.252876,3.2879707 142.252876,4.1131798 C142.252876,4.93809365 141.58795,5.63014737 140.763064,5.63014737 C139.911912,5.63014737 139.246691,4.93809365 139.246691,4.1131798 Z M137.118516,13.693577 C137.118516,15.3968439 136.453885,16.993823 135.229985,18.2179077 C134.032942,19.4154204 132.436884,20.0540348 130.734285,20.0540348 C129.217912,20.0540348 127.781224,19.335409 126.637304,18.3773399 L126.637304,19.7880193 L124.349759,19.7880193 L124.349759,0.254035552 L126.637304,0.254035552 L126.637304,9.0098142 C127.781224,8.05174484 129.217912,7.33311906 130.734285,7.33311906 C132.436884,7.33311906 134.032942,7.97202874 135.229985,9.16954147 C136.453885,10.3936264 137.118516,11.9903099 137.118516,13.693577 Z M134.830971,13.693577 C134.830971,11.4317069 132.995268,9.56841724 130.734285,9.56841724 C128.472711,9.56841724 126.637304,11.4317069 126.637304,13.693577 C126.637304,15.9554472 128.472711,17.8184415 130.734285,17.8184415 C132.995268,17.8184415 134.830971,15.9554472 134.830971,13.693577 Z M122.221584,13.693577 C122.221584,15.3968439 121.556658,16.993823 120.332758,18.2179077 C119.135715,19.4154204 117.539657,20.0540348 115.837058,20.0540348 C114.320389,20.0540348 112.884292,19.335409 111.740076,18.3773399 L111.740076,19.7880193 L109.452236,19.7880193 L109.452236,0.254035552 L111.740076,0.254035552 L111.740076,9.0098142 C112.884292,8.05174484 114.320389,7.33311906 115.837058,7.33311906 C117.539657,7.33311906 119.135715,7.97202874 120.332758,9.16954147 C121.556658,10.3936264 122.221584,11.9903099 122.221584,13.693577 Z M119.933744,13.693577 C119.933744,11.4317069 118.098336,9.56841724 115.837058,9.56841724 C113.575779,9.56841724 111.740076,11.4317069 111.740076,13.693577 C111.740076,15.9554472 113.575779,17.8184415 115.837058,17.8184415 C118.098336,17.8184415 119.933744,15.9554472 119.933744,13.693577 Z M89.2878413,8.85008673 C90.0593087,7.99860091 92.3205871,7.33311906 93.7304185,7.33311906 L93.1717393,9.62185644 C91.043564,9.62185644 89.2878413,11.2454074 89.2878413,13.2947013 L89.2878413,19.7880193 L87.0000013,19.7880193 L87.0000013,7.59942987 L89.2878413,7.59942987 L89.2878413,8.85008673 Z M104.584378,7.5991346 L106.872218,7.5991346 L106.872218,19.7880193 L104.584378,19.7880193 L104.584378,18.3773399 C103.440753,19.335409 102.004065,20.0540348 100.487693,20.0540348 C98.7850931,20.0540348 97.1890354,19.4154204 95.9654306,18.2179077 C94.768092,16.993823 94.1031664,15.3968439 94.1031664,13.693577 C94.1031664,11.9903099 94.768092,10.3936264 95.9654306,9.16954147 C97.1890354,7.97202874 98.7850931,7.33311906 100.487693,7.33311906 C102.004065,7.33311906 103.440753,8.05174484 104.584378,9.0098142 L104.584378,7.5991346 Z M104.584378,13.693577 C104.584378,11.4317069 102.748971,9.56841724 100.487693,9.56841724 C98.2264139,9.56841724 96.3910066,11.4317069 96.3910066,13.693577 C96.3910066,15.9554472 98.2264139,17.8184415 100.487693,17.8184415 C102.748971,17.8184415 104.584378,15.9554472 104.584378,13.693577 Z" id="path-1"></path>
                </g>
            </g>
        </g>
    </g>
</svg>
