<?xml version="1.0" encoding="UTF-8"?>
<svg width="22px" height="22px" viewBox="0 0 22 22" version="1.1" xmlns="http://www.w3.org/2000/svg" xmlns:xlink="http://www.w3.org/1999/xlink">
    <g id="export" stroke="none" stroke-width="1" fill="none" fill-rule="evenodd">
        <path id="Settings" stroke="#D6D6D6" d="M20.9608888,10.3751111 C20.9608888,10.1931111 20.8888888,10.0302222 20.746,9.88688888 C20.6024444,9.744 20.4531112,9.65933334 20.2968888,9.63288888 L18.9297778,9.43755556 C18.5128888,9.38577778 18.2393334,9.164 18.1095556,8.77355556 L17.6017778,7.52355556 C17.4191112,7.15933334 17.4455556,6.80755556 17.6797778,6.46888888 L18.5391112,5.37511112 C18.7735556,5.03688888 18.76,4.71111112 18.5,4.39844444 L17.5624444,3.5 C17.2755556,3.24 16.9631112,3.22666666 16.6248888,3.46088888 L15.5311112,4.28111112 C15.1922222,4.54177778 14.8406666,4.58088888 14.4764444,4.39822222 L13.2264444,3.89044444 C13.0702222,3.83866666 12.92,3.728 12.7771112,3.55844444 C12.6335556,3.38955556 12.5622222,3.22644444 12.5622222,3.07022222 L12.3668888,1.70311112 C12.3406666,1.54688888 12.2557778,1.39733334 12.1128888,1.254 C11.9693334,1.11111112 11.8064444,1.03911112 11.6246666,1.03911112 C11.4944444,1.01333334 11.2862222,1 11,1 L10.3751111,1.03911112 C10.1926667,1.03911112 10.0295556,1.11111112 9.88688888,1.254 C9.74333334,1.39755556 9.65866666,1.54688888 9.63311112,1.70311112 L9.43777778,3.07022222 C9.38533334,3.48711112 9.16444444,3.76066666 8.77377778,3.89066666 L7.52377778,4.39844444 C7.15888888,4.58111112 6.80733334,4.542 6.46911112,4.28133334 L5.37533334,3.46111112 C5.03644444,3.22666666 4.71133334,3.24022222 4.39866666,3.50022222 L3.50022222,4.39866666 C3.23955556,4.71111112 3.22688888,5.03711112 3.46111112,5.37533334 L4.28133334,6.46911112 C4.54133334,6.808 4.58044444,7.15955556 4.39844444,7.52377778 L3.89066666,8.77377778 C3.83822222,8.93 3.72755556,9.08022222 3.55866666,9.22288888 C3.38888888,9.36644444 3.22666666,9.43777778 3.07044444,9.43777778 L1.70333334,9.63311112 C1.54711112,9.65955556 1.39688888,9.74422222 1.254,9.88711112 C1.11044444,10.0306667 1.03911112,10.1935556 1.03911112,10.3753333 C1.01266666,10.5055556 1,10.7137778 1,11 L1.03911112,11.6248888 C1.03911112,11.8073334 1.11044444,11.9704444 1.254,12.1131112 C1.39688888,12.2566666 1.54688888,12.3413334 1.70333334,12.3671112 L3.07044444,12.5624444 C3.22666666,12.5624444 3.38911112,12.6344444 3.55866666,12.7773334 C3.72755556,12.9208888 3.83822222,13.0702222 3.89066666,13.2266666 L4.39844444,14.4766666 C4.58044444,14.8417778 4.54133334,15.1931112 4.28133334,15.5313334 L3.46111112,16.6251112 C3.22666666,16.964 3.20044444,17.2373334 3.38311112,17.4453334 C3.40866666,17.4715556 3.44177778,17.5106666 3.48066666,17.5624444 C3.51977778,17.6148888 3.56488888,17.6735556 3.61733334,17.7382222 C3.66911112,17.8035556 3.72111112,17.8622222 3.77355556,17.914 C3.82533334,17.9664444 3.87733334,18.0184444 3.92977778,18.0702222 C3.98155556,18.1226666 4.03355556,18.1746666 4.086,18.2264444 C4.13777778,18.2788888 4.18977778,18.318 4.24222222,18.3435556 C4.346,18.448 4.52177778,18.5262222 4.76955556,18.578 C5.01666666,18.6304444 5.21866666,18.6171112 5.37511112,18.5388888 L6.46888888,17.7186666 C6.80711112,17.4586666 7.15866666,17.4195556 7.52355556,17.6015556 L8.77355556,18.1093334 C8.92977778,18.1617778 9.07933334,18.2724444 9.22266666,18.4413334 C9.36555556,18.6111112 9.43755556,18.7733334 9.43755556,18.9295556 L9.63288888,20.2966666 C9.65844444,20.4528888 9.74333334,20.6024444 9.88666666,20.7457778 C10.0295556,20.8886666 10.1924444,20.9606666 10.3748889,20.9606666 C10.5048888,20.9866666 10.7131112,21 11,21 L11.6248888,20.9608888 C11.8068888,20.9608888 11.9695556,20.8888888 12.1131112,20.746 C12.256,20.6024444 12.3406666,20.4531112 12.3671112,20.2968888 L12.5624444,18.9297778 C12.5624444,18.7735556 12.6337778,18.6111112 12.7773334,18.4415556 C12.9202222,18.2726666 13.0702222,18.162 13.2266666,18.1095556 L14.4766666,17.6017778 C14.8408888,17.4197778 15.1924444,17.4588888 15.5313334,17.7188888 L16.6251112,18.5391112 C16.9633334,18.7735556 17.2891112,18.7606666 17.6017778,18.5 L18.5002222,17.6015556 C18.7602222,17.2891112 18.7735556,16.9637778 18.5393334,16.6248888 L17.68,15.5311112 C17.4455556,15.1928888 17.4193334,14.8413334 17.602,14.4764444 L18.1097778,13.2264444 C18.2397778,12.8357778 18.5131112,12.6148888 18.93,12.5624444 L20.2971112,12.3671112 C20.4533334,12.3415556 20.6028888,12.2566666 20.7462222,12.1131112 C20.8891112,11.9702222 20.9611112,11.8073334 20.9611112,11.6248888 C20.9866666,11.4951112 21,11.2868888 21,11 L20.9608888,10.3751111 L20.9608888,10.3751111 Z M11,15.0488034 C8.76399008,15.0488034 6.95119658,13.2360099 6.95119658,11 C6.95119658,8.76399008 8.76399008,6.95119658 11,6.95119658 C13.2360099,6.95119658 15.0488034,8.76399008 15.0488034,11 C15.0488034,13.2360099 13.2360099,15.0488034 11,15.0488034 L11,15.0488034 L11,15.0488034 Z"></path>
    </g>
</svg>
