<?xml version="1.0" encoding="UTF-8"?>
<svg width="42px" height="42px" viewBox="0 0 42 42" version="1.1" xmlns="http://www.w3.org/2000/svg" xmlns:xlink="http://www.w3.org/1999/xlink">
    <!-- Generator: Sketch 41 (35326) - http://www.bohemiancoding.com/sketch -->
    <title>Remote Icon</title>
    <desc>Created with Sketch.</desc>
    <defs></defs>
    <g id="export" stroke="none" stroke-width="1" fill="none" fill-rule="evenodd">
        <g id="Remote-Icon" transform="translate(1.000000, 1.000000)" stroke="#FFFFFF">
            <ellipse id="Oval" fill-opacity="0.8" fill="#001A3A" cx="20" cy="20" rx="20" ry="20"></ellipse>
            <path d="M25.0411474,6.91222326 L16.4906162,6.91222326 C14.9919819,6.91222326 13.7658818,8.07933437 13.7658818,9.50586771 L13.7658818,30.3185788 C13.7658818,31.7451121 14.9919819,32.9122233 16.4906162,32.9122233 L25.0411474,32.9122233 C26.5397816,32.9122233 27.7658818,31.7451121 27.7658818,30.3185788 L27.7658818,9.50586771 C27.7658818,8.07933437 26.5397816,6.91222326 25.0411474,6.91222326 L25.0411474,6.91222326 Z M17.9944099,30.0013788 C17.3000244,30.0013788 16.7373537,29.4654899 16.7373537,28.804801 C16.7373537,28.1438233 17.3003279,27.6082233 17.9944099,27.6082233 C18.6887953,27.6082233 19.251466,28.1441121 19.251466,28.804801 C19.2517695,29.4657788 18.6887953,30.0013788 17.9944099,30.0013788 L17.9944099,30.0013788 Z M17.9944099,25.7183121 C17.3000244,25.7183121 16.7373537,25.1824233 16.7373537,24.5217344 C16.7373537,23.8607566 17.3003279,23.3251566 17.9944099,23.3251566 C18.6887953,23.3251566 19.251466,23.8610455 19.251466,24.5217344 C19.2517695,25.1827121 18.6887953,25.7183121 17.9944099,25.7183121 L17.9944099,25.7183121 Z M17.9944099,21.4352455 C17.3000244,21.4352455 16.7373537,20.8993566 16.7373537,20.2386677 C16.7373537,19.5776899 17.3003279,19.0420899 17.9944099,19.0420899 C18.6887953,19.0420899 19.251466,19.5779788 19.251466,20.2386677 C19.2517695,20.8993566 18.6887953,21.4352455 17.9944099,21.4352455 L17.9944099,21.4352455 Z M23.2517695,30.0013788 C22.5573841,30.0013788 21.9947134,29.4654899 21.9947134,28.804801 C21.9947134,28.1438233 22.5576876,27.6082233 23.2517695,27.6082233 C23.9461549,27.6082233 24.5088257,28.1441121 24.5088257,28.804801 C24.5088257,29.4657788 23.9458514,30.0013788 23.2517695,30.0013788 L23.2517695,30.0013788 Z M23.2517695,25.7183121 C22.5573841,25.7183121 21.9947134,25.1824233 21.9947134,24.5217344 C21.9947134,23.8607566 22.5576876,23.3251566 23.2517695,23.3251566 C23.9461549,23.3251566 24.5088257,23.8610455 24.5088257,24.5217344 C24.5088257,25.1827121 23.9458514,25.7183121 23.2517695,25.7183121 L23.2517695,25.7183121 Z M23.2517695,21.4352455 C22.5573841,21.4352455 21.9947134,20.8993566 21.9947134,20.2386677 C21.9947134,19.5776899 22.5576876,19.0420899 23.2517695,19.0420899 C23.9461549,19.0420899 24.5088257,19.5779788 24.5088257,20.2386677 C24.5088257,20.8993566 23.9458514,21.4352455 23.2517695,21.4352455 L23.2517695,21.4352455 Z M20.7944099,17.3558455 C18.4906162,17.3558455 16.6229379,15.5780233 16.6229379,13.3850677 C16.6229379,11.1921121 18.4906162,9.41428993 20.7944099,9.41428993 C23.0982035,9.41428993 24.9658818,11.1921121 24.9658818,13.3850677 C24.9658818,15.5780233 23.0982035,17.3558455 20.7944099,17.3558455 L20.7944099,17.3558455 Z" id="Shape" transform="translate(20.765882, 19.912223) rotate(45.000000) translate(-20.765882, -19.912223) "></path>
        </g>
    </g>
</svg>