<svg id="backgrounds" xmlns="http://www.w3.org/2000/svg" xmlns:xlink="http://www.w3.org/1999/xlink" width="32" height="32" viewBox="0 0 32 32">
  <defs>
    <clipPath id="clip-path">
      <path d="M2.69,6.78l11-6.33A3.35,3.35,0,0,1,17,.45L28.15,6.78A3.52,3.52,0,0,1,30,9.67V22.33a3.52,3.52,0,0,1-1.85,2.89L17.1,31.55a3.42,3.42,0,0,1-3.38,0l-11-6.33A3.38,3.38,0,0,1,1,22.33V9.67A3.36,3.36,0,0,1,2.69,6.78Z" fill="#3dd1a5"/>
    </clipPath>
    <clipPath id="clip-path-2">
      <path d="M2.69,6.78l11-6.33A3.35,3.35,0,0,1,17,.45L28.15,6.78A3.52,3.52,0,0,1,30,9.67V22.33a3.52,3.52,0,0,1-1.85,2.89L17.1,31.55a3.42,3.42,0,0,1-3.38,0l-11-6.33A3.38,3.38,0,0,1,1,22.33V9.67A3.36,3.36,0,0,1,2.69,6.78Z" fill="none"/>
    </clipPath>
    <radialGradient id="Dégradé_sans_nom_10" data-name="Dégradé sans nom 10" cx="16.09" cy="15.99" r="15.56" gradientTransform="matrix(0.84, 0.54, -0.86, 1.36, 16.34, -14.63)" gradientUnits="userSpaceOnUse">
      <stop offset="0.37" stop-opacity="0"/>
      <stop offset="1"/>
    </radialGradient>
  </defs>
  <g>
    <path d="M2.69,6.78l11-6.33A3.35,3.35,0,0,1,17,.45L28.15,6.78A3.52,3.52,0,0,1,30,9.67V22.33a3.52,3.52,0,0,1-1.85,2.89L17.1,31.55a3.42,3.42,0,0,1-3.38,0l-11-6.33A3.38,3.38,0,0,1,1,22.33V9.67A3.36,3.36,0,0,1,2.69,6.78Z" fill="#3dd1a5"/>
    <g clip-path="url(#clip-path)">
      <path d="M15.87,30.32L26.45,21.8a3.59,3.59,0,0,0,1.29-3.34L25.66,5a3.58,3.58,0,0,0-.12-0.51L23.06,2.41a3.34,3.34,0,0,0-3.29-.59L7.87,6.12A3.34,3.34,0,0,0,5.72,8.68L3.49,21.14a3.34,3.34,0,0,0,1.13,3.14l7.87,6.64A3.58,3.58,0,0,0,15.87,30.32Z" fill="#3dd1a5"/>
      <g opacity="0.25">
        <path d="M15.87,30.32L26.45,21.8a3.59,3.59,0,0,0,1.29-3.34L25.66,5a3.58,3.58,0,0,0-.12-0.51L23.06,2.41a3.34,3.34,0,0,0-3.29-.59L7.87,6.12A3.34,3.34,0,0,0,5.72,8.68L3.49,21.14a3.34,3.34,0,0,0,1.13,3.14l7.87,6.64A3.58,3.58,0,0,0,15.87,30.32Z" fill="#3dd1a5"/>
      </g>
      <path d="M32.73,10.58L25.54,4.51a3.58,3.58,0,0,1,.12.51l2.09,13.43a3.59,3.59,0,0,1-1.29,3.34L15.87,30.32a3.58,3.58,0,0,1-3.38.6l1.8,1.52a3.34,3.34,0,0,0,3.29.59l11.9-4.3a3.34,3.34,0,0,0,2.15-2.55l2.23-12.46A3.34,3.34,0,0,0,32.73,10.58Z" fill="#3dd1a5"/>
      <path d="M3.49,21.14L5.72,8.68A3.34,3.34,0,0,1,7.87,6.12l11.9-4.3a3.34,3.34,0,0,1,3.29.59l2.48,2.09a3.58,3.58,0,0,0-2.13-2.28L10.74-2.68a3.58,3.58,0,0,0-3.54.55L-3.39,6.39A3.59,3.59,0,0,0-4.68,9.74L-2.6,23.17A3.59,3.59,0,0,0-.35,26l12.67,4.91,0.16,0.05L4.62,24.28A3.34,3.34,0,0,1,3.49,21.14Z" fill="#3dd1a5"/>
    </g>
  </g>
  <g clip-path="url(#clip-path-2)">
    <path d="M15.87,30.32L26.45,21.8a3.59,3.59,0,0,0,1.29-3.34L25.66,5a3.58,3.58,0,0,0-.12-0.51L23.06,2.41a3.34,3.34,0,0,0-3.29-.59L7.87,6.12A3.34,3.34,0,0,0,5.72,8.68L3.49,21.14a3.34,3.34,0,0,0,1.13,3.14l7.87,6.64A3.58,3.58,0,0,0,15.87,30.32Z" fill="#3dd1a5"/>
    <g opacity="0.25">
      <path d="M15.87,30.32L26.45,21.8a3.59,3.59,0,0,0,1.29-3.34L25.66,5a3.58,3.58,0,0,0-.12-0.51L23.06,2.41a3.34,3.34,0,0,0-3.29-.59L7.87,6.12A3.34,3.34,0,0,0,5.72,8.68L3.49,21.14a3.34,3.34,0,0,0,1.13,3.14l7.87,6.64A3.58,3.58,0,0,0,15.87,30.32Z" fill="url(#Dégradé_sans_nom_10)"/>
    </g>
    <path d="M32.73,10.58L25.54,4.51a3.58,3.58,0,0,1,.12.51l2.09,13.43a3.59,3.59,0,0,1-1.29,3.34L15.87,30.32a3.58,3.58,0,0,1-3.38.6l1.8,1.52a3.34,3.34,0,0,0,3.29.59l11.9-4.3a3.34,3.34,0,0,0,2.15-2.55l2.23-12.46A3.34,3.34,0,0,0,32.73,10.58Z" fill="#3dd1a5"/>
    <path d="M3.49,21.14L5.72,8.68A3.34,3.34,0,0,1,7.87,6.12l11.9-4.3a3.34,3.34,0,0,1,3.29.59l2.48,2.09a3.58,3.58,0,0,0-2.13-2.28L10.74-2.68a3.58,3.58,0,0,0-3.54.55L-3.39,6.39A3.59,3.59,0,0,0-4.68,9.74L-2.6,23.17A3.59,3.59,0,0,0-.35,26l12.67,4.91,0.16,0.05L4.62,24.28A3.34,3.34,0,0,1,3.49,21.14Z" fill="#3dd1a5"/>
  </g>
  <path d="M17.54,20.82h2.22c-0.19-.39-2.46-4.14-2.68-4.41a3.44,3.44,0,0,0,1.5-1.11,3,3,0,0,0,.52-1.85,3,3,0,0,0-1.29-2.69,6.69,6.69,0,0,0-3.72-.86H11.27a0.31,0.31,0,0,0-.35.33V20.82h2.43V16.88h0V12c0.12,0,.7,0,0.87,0a3.71,3.71,0,0,1,1.77.33,1.19,1.19,0,0,1,.6,1.13A1.24,1.24,0,0,1,16,14.61,4.14,4.14,0,0,1,14,15h0c-0.36,0-.48.18-0.33,0.52l0.88,1.41c0.18,0.21,1.71,2.67,2.29,3.61A0.86,0.86,0,0,0,17.54,20.82Z" fill="#fff"/>
</svg>
