<?xml version="1.0" encoding="utf-8"?>
<!-- Generator: Adobe Illustrator 21.1.0, SVG Export Plug-In . SVG Version: 6.00 Build 0)  -->
<svg version="1.1" id="Layer_1" xmlns="http://www.w3.org/2000/svg" xmlns:xlink="http://www.w3.org/1999/xlink" x="0px" y="0px"
	 viewBox="0 0 242 200" width="242" style="enable-background:new 0 0 242 200;" xml:space="preserve">
<style type="text/css">
	.st0{opacity:0.3;fill:#04040F;enable-background:new    ;}
	.st1{opacity:0.8;enable-background:new    ;}
	.st2{fill:#FFFEFE;}
	.st3{fill:#FFFFFF;}
	.st4{fill:none;stroke:#F9F9FE;}
	.st5{opacity:0.5;fill:#64BB51;enable-background:new    ;}
	.st6{fill:#64BB51;}
	.st7{opacity:0.5;fill:#0779BE;enable-background:new    ;}
	.st8{fill:#0779BE;}
	.st9{opacity:0.5;fill:#16BFDD;enable-background:new    ;}
	.st10{fill:#16BFDD;}
	.st11{opacity:0.5;fill:#F0D511;enable-background:new    ;}
	.st12{fill:#F0D511;}
	.st13{fill:#CED8DB;}
	.st14{fill:#EB5A46;}
	.st15{opacity:0.5;fill:#EB5A46;enable-background:new    ;}
</style>
<path id="Rectangle_1_copy_5" class="st0" d="M146,61h65l0,0v10l0,0h-65c-2.8,0-5-2.2-5-5l0,0C141,63.2,143.2,61,146,61z"/>
<path id="Rectangle_1_copy_6" class="st0" d="M230,61h7c2.8,0,5,2.2,5,5l0,0c0,2.8-2.2,5-5,5h-7l0,0V61L230,61z"/>
<rect id="Rectangle_1_copy_7" x="221" y="61" class="st0" width="8" height="10"/>
<rect id="Rectangle_1_copy_8" x="212" y="61" class="st0" width="8" height="10"/>
<g class="st1">
	<path class="st2" d="M156.4,67.8v-3.6h1.3c0.2,0,0.4,0,0.5,0c0.2,0,0.3,0.1,0.4,0.2c0.1,0.1,0.2,0.2,0.3,0.3s0.1,0.3,0.1,0.5
		c0,0.3-0.1,0.6-0.3,0.8s-0.5,0.3-1,0.3h-0.9v1.5C156.8,67.8,156.4,67.8,156.4,67.8z M156.9,65.8h0.9c0.3,0,0.5-0.1,0.7-0.2
		c0.1-0.1,0.2-0.3,0.2-0.5c0-0.1,0-0.3-0.1-0.4c-0.1-0.1-0.2-0.2-0.3-0.2s-0.2,0-0.4,0H157L156.9,65.8L156.9,65.8z"/>
	<path class="st2" d="M159.7,67.8v-3.6h0.4v3.6H159.7z"/>
	<path class="st2" d="M162.5,67.4c-0.2,0.1-0.3,0.2-0.5,0.3c-0.2,0.1-0.3,0.1-0.5,0.1c-0.3,0-0.5-0.1-0.7-0.2
		c-0.2-0.1-0.2-0.3-0.2-0.5c0-0.1,0-0.2,0.1-0.3c0.1-0.1,0.1-0.2,0.2-0.3c0.1-0.1,0.2-0.1,0.3-0.1s0.2,0,0.4-0.1
		c0.4,0,0.6-0.1,0.8-0.2c0-0.1,0-0.1,0-0.1c0-0.2,0-0.3-0.1-0.4c-0.1-0.1-0.3-0.1-0.5-0.1s-0.4,0-0.5,0.1c-0.1,0.1-0.2,0.2-0.2,0.4
		l-0.4-0.1c0-0.2,0.1-0.3,0.2-0.4c0.1-0.1,0.2-0.2,0.4-0.3s0.4-0.1,0.6-0.1c0.2,0,0.4,0,0.5,0.1c0.1,0.1,0.2,0.1,0.3,0.2
		c0.1,0.1,0.1,0.2,0.1,0.3c0,0.1,0,0.2,0,0.4v0.6c0,0.4,0,0.7,0,0.8c0,0.1,0.1,0.2,0.1,0.3h-0.5C162.5,67.6,162.5,67.5,162.5,67.4z
		 M162.5,66.4c-0.2,0.1-0.4,0.1-0.7,0.2c-0.2,0-0.3,0.1-0.4,0.1c-0.1,0-0.1,0.1-0.2,0.1c0,0.1-0.1,0.1-0.1,0.2c0,0.1,0,0.2,0.1,0.3
		c0.1,0.1,0.2,0.1,0.4,0.1s0.3,0,0.5-0.1c0.2-0.1,0.2-0.2,0.3-0.3c0-0.1,0.1-0.2,0.1-0.4L162.5,66.4L162.5,66.4z"/>
	<path class="st2" d="M163.6,67.8v-2.6h0.4v0.4c0.2-0.3,0.5-0.4,0.8-0.4c0.2,0,0.3,0,0.4,0.1c0.1,0.1,0.2,0.1,0.3,0.2
		c0.1,0.1,0.1,0.2,0.1,0.3c0,0.1,0,0.2,0,0.4v1.6h-0.4v-1.6c0-0.2,0-0.3-0.1-0.4c0-0.1-0.1-0.2-0.2-0.2s-0.2-0.1-0.3-0.1
		c-0.2,0-0.3,0.1-0.5,0.2c-0.1,0.1-0.2,0.3-0.2,0.7v1.4H163.6z"/>
	<path class="st2" d="M166.3,68.8v-0.4c0.1,0,0.2,0,0.3,0s0.2,0,0.2,0l0.1-0.1c0,0,0.1-0.2,0.1-0.3v-0.1l-1-2.6h0.5l0.5,1.5
		c0.1,0.2,0.1,0.4,0.2,0.6c0.1-0.2,0.1-0.4,0.2-0.6l0.6-1.5h0.4l-1,2.6c-0.1,0.3-0.2,0.5-0.2,0.6c-0.1,0.1-0.2,0.3-0.3,0.3
		c-0.1,0.1-0.2,0.1-0.4,0.1C166.5,68.8,166.4,68.8,166.3,68.8z"/>
	<path class="st2" d="M169.3,67.8l-0.8-2.6h0.5l0.4,1.5l0.2,0.6c0,0,0.1-0.2,0.1-0.5l0.4-1.5h0.5l0.4,1.5l0.1,0.5l0.1-0.5l0.4-1.5
		h0.4l-0.8,2.6h-0.5l-0.4-1.6l-0.1-0.4l-0.5,2L169.3,67.8L169.3,67.8z"/>
	<path class="st2" d="M174.2,67.4c-0.2,0.1-0.3,0.2-0.5,0.3c-0.2,0.1-0.3,0.1-0.5,0.1c-0.3,0-0.5-0.1-0.7-0.2
		c-0.2-0.1-0.2-0.3-0.2-0.5c0-0.1,0-0.2,0.1-0.3c0.1-0.1,0.1-0.2,0.2-0.3s0.2-0.1,0.3-0.1s0.2,0,0.4-0.1c0.4,0,0.6-0.1,0.8-0.2
		c0-0.1,0-0.1,0-0.1c0-0.2,0-0.3-0.1-0.4c-0.1-0.1-0.3-0.1-0.5-0.1s-0.4,0-0.5,0.1c-0.1,0.1-0.2,0.2-0.2,0.4l-0.4-0.1
		c0-0.2,0.1-0.3,0.2-0.4c0.1-0.1,0.2-0.2,0.4-0.3s0.4-0.1,0.6-0.1c0.2,0,0.4,0,0.5,0.1c0.1,0.1,0.2,0.1,0.3,0.2
		c0.1,0.1,0.1,0.2,0.1,0.3c0,0.1,0,0.2,0,0.4v0.6c0,0.4,0,0.7,0,0.8s0.1,0.2,0.1,0.3h-0.5C174.2,67.6,174.2,67.5,174.2,67.4z
		 M174.1,66.4c-0.2,0.1-0.4,0.1-0.7,0.2c-0.2,0-0.3,0.1-0.4,0.1c-0.1,0-0.1,0.1-0.2,0.1c0,0.1-0.1,0.1-0.1,0.2c0,0.1,0,0.2,0.1,0.3
		s0.2,0.1,0.4,0.1s0.3,0,0.5-0.1c0.1-0.1,0.2-0.2,0.3-0.3c0-0.1,0.1-0.2,0.1-0.4L174.1,66.4L174.1,66.4z"/>
	<path class="st2" d="M175.2,68.8v-0.4c0.1,0,0.2,0,0.3,0s0.2,0,0.2,0l0.1-0.1c0,0,0.1-0.2,0.1-0.3v-0.1l-1-2.6h0.5l0.5,1.5
		c0.1,0.2,0.1,0.4,0.2,0.6c0.1-0.2,0.1-0.4,0.2-0.6l0.6-1.5h0.4l-1,2.6c-0.1,0.3-0.2,0.5-0.2,0.6c-0.1,0.1-0.2,0.3-0.3,0.3
		c-0.1,0.1-0.2,0.1-0.4,0.1C175.4,68.8,175.3,68.8,175.2,68.8z"/>
	<path class="st2" d="M181.8,66.5l0.5,0.1c-0.1,0.4-0.3,0.7-0.5,0.9c-0.2,0.2-0.6,0.3-0.9,0.3c-0.4,0-0.7-0.1-0.9-0.2
		c-0.2-0.2-0.4-0.4-0.6-0.7c-0.1-0.3-0.2-0.6-0.2-1c0-0.4,0.1-0.7,0.2-1s0.3-0.5,0.6-0.6c0.3-0.1,0.6-0.2,0.9-0.2
		c0.4,0,0.7,0.1,0.9,0.3s0.4,0.4,0.5,0.8l-0.5,0.1c-0.1-0.3-0.2-0.4-0.4-0.6s-0.4-0.2-0.6-0.2c-0.3,0-0.5,0.1-0.7,0.2
		c-0.2,0.1-0.3,0.3-0.4,0.5c-0.1,0.2-0.1,0.5-0.1,0.7c0,0.3,0,0.6,0.1,0.8s0.2,0.4,0.4,0.5c0.2,0.1,0.4,0.2,0.6,0.2
		c0.3,0,0.5-0.1,0.7-0.2C181.6,67,181.7,66.8,181.8,66.5z"/>
	<path class="st2" d="M184.4,67.4c-0.2,0.1-0.3,0.2-0.5,0.3c-0.2,0.1-0.3,0.1-0.5,0.1c-0.3,0-0.5-0.1-0.7-0.2
		c-0.2-0.1-0.2-0.3-0.2-0.5c0-0.1,0-0.2,0.1-0.3c0.1-0.1,0.1-0.2,0.2-0.3s0.2-0.1,0.3-0.1s0.2,0,0.4-0.1c0.4,0,0.6-0.1,0.8-0.2
		c0-0.1,0-0.1,0-0.1c0-0.2,0-0.3-0.1-0.4c-0.1-0.1-0.3-0.1-0.5-0.1s-0.4,0-0.5,0.1c-0.1,0.1-0.2,0.2-0.2,0.4l-0.4-0.1
		c0-0.2,0.1-0.3,0.2-0.4c0.1-0.1,0.2-0.2,0.4-0.3s0.4-0.1,0.6-0.1c0.2,0,0.4,0,0.5,0.1c0.1,0.1,0.2,0.1,0.3,0.2
		c0.1,0.1,0.1,0.2,0.1,0.3c0,0.1,0,0.2,0,0.4v0.6c0,0.4,0,0.7,0,0.8s0.1,0.2,0.1,0.3h-0.5C184.5,67.6,184.5,67.5,184.4,67.4z
		 M184.4,66.4c-0.2,0.1-0.4,0.1-0.7,0.2c-0.2,0-0.3,0.1-0.4,0.1c-0.1,0-0.1,0.1-0.2,0.1c0,0.1-0.1,0.1-0.1,0.2c0,0.1,0,0.2,0.1,0.3
		s0.2,0.1,0.4,0.1s0.3,0,0.5-0.1c0.1-0.1,0.2-0.2,0.3-0.3c0-0.1,0.1-0.2,0.1-0.4L184.4,66.4L184.4,66.4z"/>
	<path class="st2" d="M185.5,67.8v-3.6h0.4v3.6H185.5z"/>
	<path class="st2" d="M188.4,66.9l0.5,0.1c-0.1,0.3-0.2,0.5-0.4,0.6c-0.2,0.1-0.4,0.2-0.7,0.2c-0.4,0-0.7-0.1-0.9-0.4
		c-0.2-0.2-0.3-0.6-0.3-1c0-0.4,0.1-0.8,0.3-1s0.5-0.4,0.9-0.4c0.3,0,0.6,0.1,0.8,0.4c0.2,0.2,0.3,0.6,0.3,1v0.1H187
		c0,0.3,0.1,0.5,0.2,0.7c0.1,0.2,0.3,0.2,0.5,0.2s0.3,0,0.4-0.1C188.3,67.3,188.4,67.1,188.4,66.9z M187,66.3h1.4
		c0-0.2-0.1-0.4-0.2-0.5c-0.1-0.2-0.3-0.3-0.5-0.3s-0.4,0.1-0.5,0.2C187.1,65.8,187,65.9,187,66.3z"/>
	<path class="st2" d="M189.4,67.8v-2.6h0.4v0.4c0.2-0.3,0.5-0.4,0.8-0.4c0.2,0,0.3,0,0.4,0.1c0.1,0.1,0.2,0.1,0.3,0.2
		c0.1,0.1,0.1,0.2,0.1,0.3c0,0.1,0,0.2,0,0.4v1.6H191v-1.6c0-0.2,0-0.3-0.1-0.4c0-0.1-0.1-0.2-0.2-0.2s-0.2-0.1-0.3-0.1
		c-0.2,0-0.3,0.1-0.5,0.2c-0.1,0.1-0.2,0.3-0.2,0.7v1.4H189.4z"/>
	<path class="st2" d="M193.9,67.8v-0.3c-0.2,0.3-0.4,0.4-0.7,0.4c-0.2,0-0.4-0.1-0.6-0.2c-0.2-0.1-0.3-0.3-0.4-0.5
		c-0.1-0.2-0.1-0.4-0.1-0.7s0-0.5,0.1-0.7s0.2-0.4,0.4-0.5c0.2-0.1,0.4-0.2,0.6-0.2c0.2,0,0.3,0,0.4,0.1c0.1,0.1,0.2,0.2,0.3,0.3
		v-1.3h0.4v3.6L193.9,67.8L193.9,67.8z M192.5,66.4c0,0.3,0.1,0.6,0.2,0.7c0.1,0.2,0.3,0.2,0.5,0.2s0.4-0.1,0.5-0.2
		c0.1-0.2,0.2-0.4,0.2-0.7c0-0.4-0.1-0.6-0.2-0.8c-0.1-0.2-0.3-0.2-0.5-0.2s-0.4,0.1-0.5,0.2C192.6,65.8,192.5,66.1,192.5,66.4z"/>
	<path class="st2" d="M196.7,67.4c-0.2,0.1-0.3,0.2-0.5,0.3c-0.2,0.1-0.3,0.1-0.5,0.1c-0.3,0-0.5-0.1-0.7-0.2
		c-0.2-0.1-0.2-0.3-0.2-0.5c0-0.1,0-0.2,0.1-0.3c0.1-0.1,0.1-0.2,0.2-0.3s0.2-0.1,0.3-0.1s0.2,0,0.4-0.1c0.4,0,0.6-0.1,0.8-0.2
		c0-0.1,0-0.1,0-0.1c0-0.2,0-0.3-0.1-0.4c-0.1-0.1-0.3-0.1-0.5-0.1s-0.4,0-0.5,0.1c-0.1,0.1-0.2,0.2-0.2,0.4l-0.4-0.1
		c0-0.2,0.1-0.3,0.2-0.4c0.1-0.1,0.2-0.2,0.4-0.3s0.4-0.1,0.6-0.1c0.2,0,0.4,0,0.5,0.1c0.1,0.1,0.2,0.1,0.3,0.2
		c0.1,0.1,0.1,0.2,0.1,0.3c0,0.1,0,0.2,0,0.4v0.6c0,0.4,0,0.7,0,0.8s0.1,0.2,0.1,0.3h-0.5C196.7,67.6,196.7,67.5,196.7,67.4z
		 M196.6,66.4c-0.2,0.1-0.4,0.1-0.7,0.2c-0.2,0-0.3,0.1-0.4,0.1c-0.1,0-0.1,0.1-0.2,0.1c0,0.1-0.1,0.1-0.1,0.2c0,0.1,0,0.2,0.1,0.3
		s0.2,0.1,0.4,0.1s0.3,0,0.5-0.1c0.1-0.1,0.2-0.2,0.3-0.3c0-0.1,0.1-0.2,0.1-0.4L196.6,66.4L196.6,66.4z"/>
	<path class="st2" d="M197.8,67.8v-2.6h0.4v0.4c0.1-0.2,0.2-0.3,0.3-0.4c0.1-0.1,0.2-0.1,0.3-0.1s0.3,0,0.5,0.1l-0.2,0.4
		c-0.1-0.1-0.2-0.1-0.3-0.1s-0.2,0-0.3,0.1c-0.1,0.1-0.1,0.1-0.2,0.2c0,0.2-0.1,0.3-0.1,0.5v1.4h-0.4V67.8z"/>
</g>
<path class="st3" d="M204,65h-1l2,2h1l2-2h-1l-1,1h-1L204,65z"/>
<g id="Arrow">
	<path class="st4" d="M162,1.1c0,0,26-1,26,48"/>
	<path class="st4" d="M182.1,41.1c0,0,2.3,0.3,4.9,7s0-5.3,3-12.1"/>
</g>
<g>
	<path class="st3" d="M150,63c-1.7,0-3,1.3-3,3c0,0.6,0.2,1.1,0.4,1.5V66c0-1.4,1.2-2.6,2.6-2.6s2.6,1.2,2.6,2.6s-1.2,2.6-2.6,2.6
		c-0.3,0-0.6-0.1-0.9-0.2v0.5c0.3,0.1,0.6,0.1,0.9,0.1c1.7,0,3-1.3,3-3S151.7,63,150,63z"/>
	<path class="st3" d="M150,68.1c1.2,0,2.1-1,2.1-2.1s-1-2.1-2.1-2.1s-2.1,1-2.1,2.1v2.1c0.2,0.3,0.5,0.5,0.9,0.6v-1l0.6,0.3
		C149.5,68.1,149.8,68.1,150,68.1z M150.9,65.1h0.4v0.4h-0.4V65.1z M150.9,66h0.4v0.4h-0.4V66z M150,65.1h0.4v0.4H150V65.1z M150,66
		h0.4v0.4H150V66z M150,66.9h0.4v0.4H150V66.9z M149.1,66h0.4v0.4h-0.4V66z M149.1,66.9h0.4v0.4h-0.4V66.9z"/>
</g>
<g>
	<path class="st3" d="M241,153H1c-0.6,0-1-0.4-1-1V79c0-0.6,0.4-1,1-1h240c0.6,0,1,0.4,1,1v73C242,152.6,241.6,153,241,153z"/>
	<path class="st5" d="M186,126h-38c-0.6,0-1-0.4-1-1v-10c0-0.6,0.4-1,1-1h38c0.6,0,1,0.4,1,1v10C187,125.6,186.6,126,186,126z"/>
	<path class="st6" d="M149,126h-1c-0.6,0-1-0.4-1-1v-10c0-0.6,0.4-1,1-1h1V126z"/>
	<path class="st7" d="M232,128h-38c-0.6,0-1-0.4-1-1v-12c0-0.6,0.4-1,1-1h38c0.6,0,1,0.4,1,1v12C233,127.6,232.6,128,232,128z"/>
	<path class="st8" d="M195,128h-1c-0.6,0-1-0.4-1-1v-12c0-0.6,0.4-1,1-1h1V128z"/>
	<path class="st9" d="M232,142h-38c-0.6,0-1-0.4-1-1v-8c0-0.6,0.4-1,1-1h38c0.6,0,1,0.4,1,1v8C233,141.6,232.6,142,232,142z"/>
	<path class="st10" d="M195,142h-1c-0.6,0-1-0.4-1-1v-8c0-0.6,0.4-1,1-1h1V142z"/>
	<path class="st7" d="M186,138h-38c-0.6,0-1-0.4-1-1v-6c0-0.6,0.4-1,1-1h38c0.6,0,1,0.4,1,1v6C187,137.6,186.6,138,186,138z"/>
	<path class="st8" d="M149,138h-1c-0.6,0-1-0.4-1-1v-6c0-0.6,0.4-1,1-1h1V138z"/>
	<path class="st11" d="M140,140h-38c-0.6,0-1-0.4-1-1v-6c0-0.6,0.4-1,1-1h38c0.6,0,1,0.4,1,1v6C141,139.6,140.6,140,140,140z"/>
	<path class="st12" d="M103,140h-1c-0.6,0-1-0.4-1-1v-6c0-0.6,0.4-1,1-1h1V140z"/>
	<path class="st5" d="M232,108H57c-0.6,0-1-0.4-1-1v-4c0-0.6,0.4-1,1-1h175c0.6,0,1,0.4,1,1v4C233,107.6,232.6,108,232,108z"/>
	<path class="st6" d="M58,108h-1c-0.6,0-1-0.4-1-1v-4c0-0.6,0.4-1,1-1h1V108z"/>
	<path class="st13" d="M241,200h-54c-0.6,0-1-0.4-1-1v-39c0-0.6,0.4-1,1-1h54c0.6,0,1,0.4,1,1v39C242,199.6,241.6,200,241,200z"/>
	<path class="st3" d="M191,166h46c0.6,0,1,0.4,1,1v6c0,0.6-0.4,1-1,1h-46c-0.6,0-1-0.4-1-1v-6C190,166.4,190.4,166,191,166z"/>
	<path class="st13" d="M55,200H1c-0.6,0-1-0.4-1-1v-39c0-0.6,0.4-1,1-1h54c0.6,0,1,0.4,1,1v39C56,199.6,55.6,200,55,200z"/>
	<path class="st3" d="M51,179H5c-0.6,0-1-0.4-1-1v-11c0-0.6,0.4-1,1-1h46c0.6,0,1,0.4,1,1v11C52,178.6,51.6,179,51,179z"/>
	<path class="st14" d="M49,170h-6c-0.6,0-1-0.4-1-1l0,0c0-0.6,0.4-1,1-1h6c0.6,0,1,0.4,1,1l0,0C50,169.6,49.6,170,49,170z"/>
	<path class="st3" d="M51,196H5c-0.6,0-1-0.4-1-1v-11c0-0.6,0.4-1,1-1h46c0.6,0,1,0.4,1,1v11C52,195.6,51.6,196,51,196z"/>
	<path class="st12" d="M49,187h-6c-0.6,0-1-0.4-1-1l0,0c0-0.6,0.4-1,1-1h6c0.6,0,1,0.4,1,1l0,0C50,186.6,49.6,187,49,187z"/>
	<path class="st13" d="M117,200H63c-0.6,0-1-0.4-1-1v-39c0-0.6,0.4-1,1-1h54c0.6,0,1,0.4,1,1v39C118,199.6,117.6,200,117,200z"/>
	<path class="st3" d="M113,179H67c-0.6,0-1-0.4-1-1v-11c0-0.6,0.4-1,1-1h46c0.6,0,1,0.4,1,1v11C114,178.6,113.6,179,113,179z"/>
	<path class="st6" d="M110,170h-6c-0.6,0-1-0.4-1-1l0,0c0-0.6,0.4-1,1-1h6c0.6,0,1,0.4,1,1l0,0C111,169.6,110.6,170,110,170z"/>
	<path class="st3" d="M113,196H67c-0.6,0-1-0.4-1-1v-11c0-0.6,0.4-1,1-1h46c0.6,0,1,0.4,1,1v11C114,195.6,113.6,196,113,196z"/>
	<path class="st12" d="M110,187h-6c-0.6,0-1-0.4-1-1l0,0c0-0.6,0.4-1,1-1h6c0.6,0,1,0.4,1,1l0,0C111,186.6,110.6,187,110,187z"/>
	<path class="st13" d="M179,200h-54c-0.6,0-1-0.4-1-1v-39c0-0.6,0.4-1,1-1h54c0.6,0,1,0.4,1,1v39C180,199.6,179.6,200,179,200z"/>
	<path class="st3" d="M175,184h-46c-0.6,0-1-0.4-1-1v-16c0-0.6,0.4-1,1-1h46c0.6,0,1,0.4,1,1v16C176,183.6,175.6,184,175,184z"/>
	<path class="st8" d="M173,170h-6c-0.6,0-1-0.4-1-1l0,0c0-0.6,0.4-1,1-1h6c0.6,0,1,0.4,1,1l0,0C174,169.6,173.6,170,173,170z"/>
	<path class="st3" d="M175,196h-46c-0.6,0-1-0.4-1-1v-6c0-0.6,0.4-1,1-1h46c0.6,0,1,0.4,1,1v6C176,195.6,175.6,196,175,196z"/>
	<path class="st6" d="M173,192h-6c-0.6,0-1-0.4-1-1l0,0c0-0.6,0.4-1,1-1h6c0.6,0,1,0.4,1,1l0,0C174,191.6,173.6,192,173,192z"/>
	<path class="st3" d="M191,178h46c0.6,0,1,0.4,1,1v16c0,0.6-0.4,1-1,1h-46c-0.6,0-1-0.4-1-1v-16C190,178.4,190.4,178,191,178z"/>
	<path class="st12" d="M235,170h-6c-0.6,0-1-0.4-1-1l0,0c0-0.6,0.4-1,1-1h6c0.6,0,1,0.4,1,1l0,0C236,169.6,235.6,170,235,170z"/>
	<path class="st10" d="M235,192h-6c-0.6,0-1-0.4-1-1l0,0c0-0.6,0.4-1,1-1h6c0.6,0,1,0.4,1,1l0,0C236,191.6,235.6,192,235,192z"/>
	<path class="st13" d="M242,86H0v-7c0-0.6,0.4-1,1-1h240c0.6,0,1,0.4,1,1V86z"/>
	<path class="st7" d="M184,98H10c-0.6,0-1-0.4-1-1v-4c0-0.6,0.4-1,1-1h174c0.6,0,1,0.4,1,1v4C185,97.6,184.6,98,184,98z"/>
	<path class="st8" d="M11,98h-1c-0.6,0-1-0.4-1-1v-4c0-0.6,0.4-1,1-1h1V98z"/>
	<path class="st7" d="M49,115v16c0,0.5-0.5,1-1,1H10c-0.5,0-1-0.5-1-1v-16c0-0.5,0.5-1,1-1h38C48.5,114,49,114.5,49,115z"/>
	<path class="st8" d="M11,132h-1c-0.6,0-1-0.4-1-1v-16c0-0.6,0.4-1,1-1h1V132z"/>
	<path class="st15" d="M94,127H56c-0.6,0-1-0.4-1-1v-11c0-0.6,0.4-1,1-1h38c0.6,0,1,0.4,1,1v11C95,126.6,94.6,127,94,127z"/>
	<path class="st14" d="M57,127h-1c-0.6,0-1-0.4-1-1v-11c0-0.6,0.4-1,1-1h1V127z"/>
	<path class="st9" d="M140,128h-38c-0.6,0-1-0.4-1-1v-12c0-0.6,0.4-1,1-1h38c0.6,0,1,0.4,1,1v12C141,127.6,140.6,128,140,128z"/>
	<path class="st10" d="M103,128h-1c-0.6,0-1-0.4-1-1v-12c0-0.6,0.4-1,1-1h1V128z"/>
	<path class="st5" d="M94,143H56c-0.6,0-1-0.4-1-1v-10c0-0.6,0.4-1,1-1h38c0.6,0,1,0.4,1,1v10C95,142.6,94.6,143,94,143z"/>
	<path class="st6" d="M57,143h-1c-0.6,0-1-0.4-1-1v-10c0-0.6,0.4-1,1-1h1V143z"/>
	<path class="st11" d="M48,147H10c-0.6,0-1-0.4-1-1v-9c0-0.6,0.4-1,1-1h38c0.6,0,1,0.4,1,1v9C49,146.6,48.6,147,48,147z"/>
	<path class="st12" d="M11,147h-1c-0.6,0-1-0.4-1-1v-9c0-0.6,0.4-1,1-1h1V147z"/>
</g>
</svg>
