<?xml version="1.0" encoding="utf-8"?>
<!-- Generator: Adobe Illustrator 21.1.0, SVG Export Plug-In . SVG Version: 6.00 Build 0)  -->
<svg version="1.1" id="Layer_1" xmlns="http://www.w3.org/2000/svg" xmlns:xlink="http://www.w3.org/1999/xlink" x="0px" y="0px"
	 viewBox="0 0 126 24" style="enable-background:new 0 0 126 24;" xml:space="preserve">
<style type="text/css">
	.st0{fill:#FFFFFF;}
</style>
<g>
	<g>
		<path class="st0" d="M34,15.1v5.3h-3.7V4.5H36c1.1,0,2.1,0.1,2.9,0.4c0.8,0.3,1.5,0.6,2,1.1c0.5,0.4,0.9,1,1.1,1.6
			c0.2,0.6,0.4,1.3,0.4,2c0,0.8-0.1,1.5-0.4,2.2c-0.2,0.7-0.6,1.2-1.2,1.7c-0.5,0.5-1.2,0.8-2,1.1C38,14.9,37,15,35.9,15L34,15.1
			L34,15.1z M34,12.3H36c1,0,1.7-0.2,2.1-0.7c0.4-0.4,0.6-1.1,0.6-1.9c0-0.4-0.1-0.7-0.2-1c-0.1-0.3-0.3-0.5-0.5-0.7
			c-0.2-0.2-0.5-0.4-0.8-0.5c-0.3-0.1-0.8-0.2-1.2-0.2h-1.9L34,12.3L34,12.3z"/>
		<path class="st0" d="M47.7,4.1v16.2h-3.4V4.1H47.7z"/>
		<path class="st0" d="M58.2,20.3c-0.3,0-0.6,0-0.7-0.1c-0.1-0.1-0.3-0.3-0.4-0.5L56.8,19c-0.3,0.2-0.5,0.5-0.8,0.6
			c-0.3,0.2-0.5,0.3-0.8,0.4c-0.3,0.1-0.6,0.2-0.9,0.3c-0.3,0.1-0.7,0.1-1,0.1c-0.5,0-1-0.1-1.4-0.2c-0.4-0.1-0.8-0.3-1.1-0.6
			c-0.3-0.3-0.5-0.6-0.7-1c-0.2-0.4-0.2-0.8-0.2-1.3c0-0.4,0.1-0.8,0.3-1.2c0.2-0.4,0.5-0.8,1-1.1c0.5-0.3,1.2-0.6,2-0.9
			c0.8-0.2,1.9-0.4,3.2-0.4v-0.5c0-0.7-0.1-1.1-0.4-1.4c-0.3-0.3-0.7-0.4-1.1-0.4c-0.4,0-0.7,0-1,0.1c-0.2,0.1-0.5,0.2-0.7,0.3
			s-0.4,0.2-0.6,0.3c-0.2,0.1-0.4,0.1-0.7,0.1c-0.2,0-0.4-0.1-0.6-0.2c-0.2-0.1-0.3-0.2-0.4-0.4l-0.6-1.1c0.7-0.6,1.4-1.1,2.3-1.3
			c0.8-0.3,1.7-0.4,2.7-0.4c0.7,0,1.3,0.1,1.8,0.3s1,0.5,1.4,0.9c0.4,0.4,0.7,0.9,0.9,1.4c0.2,0.5,0.3,1.1,0.3,1.8v7L58.2,20.3
			L58.2,20.3z M54.3,18.3c0.4,0,0.8-0.1,1.1-0.2s0.7-0.4,1-0.8v-1.5c-0.7,0-1.2,0-1.7,0.1c-0.4,0.1-0.8,0.2-1,0.3
			c-0.2,0.1-0.4,0.3-0.5,0.5c-0.1,0.2-0.2,0.4-0.2,0.5c0,0.4,0.1,0.7,0.3,0.8C53.6,18.2,53.9,18.3,54.3,18.3z"/>
		<path class="st0" d="M62.1,20.3V9.1h2.1c0.2,0,0.4,0.1,0.5,0.1s0.2,0.2,0.3,0.4l0.2,0.7c0.2-0.2,0.4-0.4,0.7-0.6
			c0.2-0.2,0.5-0.3,0.8-0.4s0.5-0.2,0.9-0.3c0.3-0.1,0.6-0.1,1-0.1c0.6,0,1.2,0.1,1.6,0.3c0.5,0.2,0.9,0.5,1.2,0.9
			c0.3,0.4,0.6,0.8,0.8,1.4c0.2,0.5,0.2,1.1,0.2,1.7v7.1h-3.4v-7.2c0-0.5-0.1-1-0.4-1.3c-0.2-0.3-0.6-0.4-1.1-0.4
			c-0.4,0-0.7,0.1-1,0.2s-0.6,0.4-0.9,0.6v8H62.1z"/>
		<path class="st0" d="M78.8,23.2c-0.1,0.2-0.2,0.4-0.4,0.5c-0.2,0.1-0.4,0.1-0.7,0.1h-2.5l2.2-4.6L72.9,9.1h3
			c0.3,0,0.4,0.1,0.6,0.2s0.2,0.2,0.3,0.4l1.8,4.9c0.2,0.4,0.3,0.9,0.4,1.3c0.1-0.2,0.2-0.4,0.2-0.7c0.1-0.2,0.2-0.4,0.2-0.7
			l1.7-4.8c0.1-0.2,0.2-0.3,0.3-0.4c0.2-0.1,0.4-0.2,0.5-0.2h2.7L78.8,23.2z"/>
		<path class="st0" d="M84.9,9.1h2.7c0.2,0,0.5,0.1,0.6,0.1c0.2,0.1,0.3,0.2,0.3,0.4l1.1,5c0.1,0.4,0.2,0.8,0.2,1.1
			c0.1,0.4,0.2,0.7,0.2,1.1c0.1-0.4,0.2-0.7,0.3-1.1c0.1-0.4,0.2-0.7,0.3-1.1l1.4-5c0-0.2,0.1-0.3,0.3-0.4c0.2-0.1,0.4-0.2,0.6-0.2
			h1.5c0.2,0,0.4,0.1,0.6,0.2c0.2,0.1,0.3,0.2,0.3,0.4l1.3,5c0.1,0.4,0.2,0.8,0.3,1.1s0.2,0.7,0.3,1.1c0.1-0.4,0.1-0.7,0.2-1.1
			c0.1-0.4,0.2-0.8,0.3-1.1l1.2-5c0-0.2,0.1-0.3,0.3-0.4c0.2-0.1,0.4-0.2,0.6-0.2h2.6l-3.5,11.2h-2.8c-0.2,0-0.3,0-0.4-0.1
			c-0.1-0.1-0.2-0.2-0.2-0.4l-1.6-5.6c-0.1-0.2-0.2-0.5-0.2-0.8s-0.1-0.5-0.2-0.8c-0.1,0.2-0.1,0.5-0.2,0.8
			c-0.1,0.2-0.1,0.5-0.2,0.8l-1.6,5.6c-0.1,0.4-0.4,0.6-0.7,0.6h-2.6L84.9,9.1z"/>
		<path class="st0" d="M111.6,20.3c-0.3,0-0.6,0-0.7-0.1c-0.2-0.1-0.3-0.3-0.4-0.5l-0.2-0.6c-0.3,0.2-0.5,0.5-0.8,0.6
			c-0.3,0.2-0.5,0.3-0.8,0.4c-0.3,0.1-0.6,0.2-0.9,0.3c-0.3,0.1-0.7,0.1-1,0.1c-0.5,0-1-0.1-1.4-0.2c-0.4-0.1-0.8-0.3-1.1-0.6
			c-0.3-0.3-0.5-0.6-0.7-1c-0.2-0.4-0.2-0.8-0.2-1.3c0-0.4,0.1-0.8,0.3-1.2c0.2-0.4,0.5-0.8,1.1-1.1c0.5-0.3,1.2-0.6,2-0.9
			c0.8-0.2,1.9-0.4,3.2-0.4v-0.5c0-0.7-0.2-1.1-0.4-1.4s-0.7-0.4-1.1-0.4c-0.4,0-0.7,0-1,0.1c-0.2,0.1-0.5,0.2-0.7,0.3
			s-0.4,0.2-0.6,0.3c-0.2,0.1-0.4,0.1-0.7,0.1c-0.2,0-0.4-0.1-0.6-0.2c-0.2-0.1-0.3-0.2-0.4-0.4l-0.6-1.1c0.7-0.6,1.4-1.1,2.3-1.3
			c0.8-0.3,1.7-0.4,2.7-0.4c0.7,0,1.3,0.1,1.8,0.3s1,0.5,1.4,0.9c0.4,0.4,0.7,0.9,0.9,1.4c0.2,0.5,0.3,1.1,0.3,1.8v7L111.6,20.3
			L111.6,20.3z M107.7,18.3c0.4,0,0.8-0.1,1.1-0.2c0.3-0.1,0.7-0.4,1-0.8v-1.5c-0.7,0-1.2,0-1.7,0.1c-0.4,0.1-0.8,0.2-1,0.3
			c-0.2,0.1-0.4,0.3-0.5,0.5c-0.1,0.2-0.2,0.4-0.2,0.5c0,0.4,0.1,0.7,0.3,0.8C107.1,18.2,107.4,18.3,107.7,18.3z"/>
		<path class="st0" d="M119.7,23.2c-0.1,0.2-0.2,0.4-0.4,0.5c-0.2,0.1-0.4,0.1-0.7,0.1h-2.6l2.2-4.6l-4.5-10.3h3
			c0.3,0,0.4,0.1,0.6,0.2s0.2,0.2,0.3,0.4l1.8,4.9c0.2,0.4,0.3,0.9,0.4,1.3c0.1-0.2,0.2-0.4,0.2-0.7c0.1-0.2,0.2-0.4,0.2-0.7
			l1.7-4.8c0.1-0.2,0.2-0.3,0.3-0.4c0.2-0.1,0.4-0.2,0.5-0.2h2.7L119.7,23.2z"/>
	</g>
</g>
<g>
	<path class="st0" d="M8.5,18.6c0.5,0.3,1,0.5,1.5,0.6c0.6,0.2,1.3,0.3,2,0.3c4.1,0,7.5-3.4,7.5-7.5S16.1,4.5,12,4.5
		c-3.4,0-6.3,2.3-7.2,5.5c-0.1,0.5-0.2,1-0.3,1.5c0,0.2,0,0.3,0,0.5v5v4.4c0.1,0.1,0.2,0.2,0.3,0.2c1,0.7,2,1.3,3.2,1.7
		c0.2,0.1,0.3,0.1,0.5,0.2v-3.2V18.6z M14.3,8.3H16V10h-1.8V8.3z M14.3,11.3H16V13h-1.8V11.3z M11.3,8.3H13V10h-1.8V8.3z M11.3,11.3
		H13V13h-1.8V11.3z M11.3,14.3H13V16h-1.8V14.3z M8.3,11.3H10V13H8.3V11.3z M8.3,16v-1.8H10V16H8.3z"/>
	<path class="st0" d="M12,0C5.4,0,0,5.4,0,12c0,3,1.1,5.8,3,7.9V12c0-0.7,0.1-1.4,0.2-2C4.1,6,7.7,3,12,3c5,0,9,4,9,9s-4,9-9,9
		c-0.7,0-1.4-0.1-2-0.2v3.1c0.6,0.1,1.3,0.2,2,0.2c6.6,0,12-5.4,12-12S18.6,0,12,0z"/>
</g>
</svg>
