<?xml version="1.0" encoding="utf-8"?>
<!-- Generator: Adobe Illustrator 21.0.2, SVG Export Plug-In . SVG Version: 6.00 Build 0)  -->
<svg version="1.1" id="Layer_1" xmlns="http://www.w3.org/2000/svg" x="0px" y="0px"
	 viewBox="0 0 12 12" style="enable-background:new 0 0 12 12;" xml:space="preserve">
<path fill="white" d="M9,7H8C7.4,7,7,6.6,7,6V3c0-0.6,0.4-1,1-1h1c0.6,0,1,0.4,1,1v3C10,6.6,9.6,7,9,7z"/>
<path fill="white" d="M4,10H3c-0.6,0-1-0.4-1-1V3c0-0.6,0.4-1,1-1h1c0.6,0,1,0.4,1,1v6C5,9.6,4.6,10,4,10z"/>
</svg>
