<?xml version="1.0" ?><!DOCTYPE svg  PUBLIC '-//W3C//DTD SVG 1.1//EN'  'http://www.w3.org/Graphics/SVG/1.1/DTD/svg11.dtd'><svg height="1.70667in" style="shape-rendering:geometricPrecision; text-rendering:geometricPrecision; image-rendering:optimizeQuality; fill-rule:evenodd; clip-rule:evenodd" version="1.1" viewBox="0 0 11878 11878" width="1.70667in" xml:space="preserve" xmlns="http://www.w3.org/2000/svg" xmlns:xlink="http://www.w3.org/1999/xlink"><defs><style type="text/css">
   <![CDATA[
    .fil0 {fill:none}
    .fil1 {fill:black;fill-rule:nonzero}
   ]]>
  </style></defs><g id="Layer_x0020_1"><rect class="fil0" height="11878" width="11878"/><g id="_899333944"><path class="fil1" d="M4779 5538l0 802c0,0 776,-1 1092,-1 -172,519 -437,802 -1092,802 -663,0 -1180,-538 -1180,-1202 0,-664 517,-1202 1180,-1202 350,0 576,123 784,295 166,-166 152,-190 575,-590 -359,-327 -836,-527 -1359,-527 -1116,0 -2020,906 -2020,2024 0,1118 904,2024 2020,2024 1667,0 2075,-1455 1940,-2425l-1940 0z"/><polygon class="fil1" points="8419,5578 8419,4877 7919,4877 7919,5578 7199,5578 7199,6079 7919,6079 7919,6800 8419,6800 8419,6079 9119,6079 9119,5578 "/></g></g></svg>