<?xml version="1.0" encoding="utf-8"?>
<!-- Generator: Adobe Illustrator 21.1.0, SVG Export Plug-In . SVG Version: 6.00 Build 0)  -->
<svg version="1.1" id="Layer_1" xmlns="http://www.w3.org/2000/svg" xmlns:xlink="http://www.w3.org/1999/xlink" x="0px" y="0px"
	 viewBox="0 0 14 14" style="enable-background:new 0 0 14 14;" xml:space="preserve">
<style type="text/css">
	.st0{fill:#FFFFFF;}
</style>
<g>
	<path class="st0" d="M7,0C3.1,0,0,3.1,0,7c0,1.3,0.4,2.5,1,3.6V7c0-3.3,2.7-6,6-6s6,2.7,6,6s-2.7,6-6,6c-0.7,0-1.4-0.1-2-0.4v1.1
		C5.6,13.9,6.3,14,7,14c3.9,0,7-3.1,7-7S10.9,0,7,0z"/>
	<path class="st0" d="M7,12c2.8,0,5-2.2,5-5S9.8,2,7,2S2,4.2,2,7v4.9c0.6,0.6,1.3,1.1,2,1.4V11l1.3,0.7C5.9,11.9,6.4,12,7,12z M9,5
		h1v1H9V5z M9,7h1v1H9V7z M7,5h1v1H7V5z M7,7h1v1H7V7z M7,9h1v1H7V9z M5,7h1v1H5V7z M5,9h1v1H5V9z"/>
</g>
</svg>
