<?xml version="1.0" encoding="utf-8"?>
<!-- Generator: Adobe Illustrator 21.1.0, SVG Export Plug-In . SVG Version: 6.00 Build 0)  -->
<svg version="1.1" id="Layer_1" xmlns="http://www.w3.org/2000/svg" xmlns:xlink="http://www.w3.org/1999/xlink" x="0px" y="0px"
	 width="242" height="199" viewBox="0 0 242 199" style="enable-background:new 0 0 242 199;" xml:space="preserve">
<style type="text/css">
	.st0{fill:#FFFFFF;}
	.st1{fill:#CFD8DC;}
	.st2{fill:#EB5A46;}
	.st3{opacity:0.5;fill:#0079BF;enable-background:new    ;}
	.st4{fill:#0079BF;}
	.st5{opacity:0.5;fill:#61BD4F;enable-background:new    ;}
	.st6{fill:#61BD4F;}
	.st7{opacity:0.5;fill:#F2D600;enable-background:new    ;}
	.st8{fill:#F2D600;}
	.st9{opacity:0.5;fill:#EB5A46;enable-background:new    ;}
	.st10{opacity:0.5;fill:#00C2E0;enable-background:new    ;}
	.st11{fill:#00C2E0;}
	.st12{opacity:0.3;fill:#04040F;enable-background:new    ;}
	.st13{opacity:0.8;enable-background:new    ;}
	.st14{fill:#FFFEFE;}
	.st15{opacity:0.7;fill:none;enable-background:new    ;}
	.st16{fill:none;stroke:#F9F9FE;}
</style>
<path class="st0" d="M3,77.2h236c1.7,0,3,1.3,3,3v68.3c0,1.7-1.3,3-3,3H3c-1.7,0-3-1.3-3-3V80.2C0,78.5,1.3,77.2,3,77.2z"/>
<path id="Rectangle_2_copy_14" class="st1" d="M3,77h236c1.7,0,3,1.3,3,3v5l0,0H0l0,0v-5C0,78.3,1.3,77,3,77z"/>
<path id="Rectangle_2_copy_12" class="st1" d="M3,157.1h51.3c1.7,0,3,1.3,3,3v35.8c0,1.7-1.3,3-3,3H3c-1.7,0-3-1.3-3-3v-35.8
	C0,158.4,1.3,157.1,3,157.1z"/>
<path id="Rectangle_2_copy_13" class="st0" d="M6.3,165.6h44.8c1.1,0,2,0.9,2,2v9.4c0,1.1-0.9,2-2,2H6.3c-1.1,0-2-0.9-2-2v-9.4
	C4.3,166.5,5.1,165.6,6.3,165.6z"/>
<path id="Rectangle_2_copy_16" class="st2" d="M44.2,167.7h5.1c0.6,0,1,0.4,1,1v0.1c0,0.6-0.4,1-1,1h-5.1c-0.6,0-1-0.4-1-1v-0.1
	C43.2,168.2,43.6,167.7,44.2,167.7z"/>
<path id="Rectangle_2_copy_15" class="st0" d="M6.3,183.3h44.8c1.1,0,2,0.9,2,2v8c0,1.1-0.9,2-2,2H6.3c-1.1,0-2-0.9-2-2v-8
	C4.3,184.2,5.1,183.3,6.3,183.3z"/>
<path id="Rectangle_2_copy" class="st3" d="M13,91h171c1.1,0,2,0.9,2,2v2c0,1.1-0.9,2-2,2H13c-1.1,0-2-0.9-2-2v-2
	C11,91.9,11.9,91,13,91z"/>
<path id="Rectangle_2_copy_2" class="st4" d="M12,91h1l0,0v6l0,0h-1c-0.6,0-1-0.4-1-1v-4C11,91.4,11.4,91,12,91z"/>
<path id="Rectangle_2_copy_3" class="st5" d="M57.9,99.8h171.5c1.1,0,2,0.9,2,2v1.7c0,1.1-0.9,2-2,2H57.9c-1.1,0-2-0.9-2-2v-1.7
	C55.9,100.7,56.8,99.8,57.9,99.8z"/>
<path id="Rectangle_2_copy_3-2" class="st6" d="M57.9,99.8H58l0,0v5.7l0,0h-0.1c-1.1,0-2-0.9-2-2v-1.7
	C55.9,100.7,56.8,99.8,57.9,99.8z"/>
<path id="Rectangle_2_copy_4" class="st7" d="M12.6,131.6h35.6c1.1,0,2,0.9,2,2v7.3c0,1.1-0.9,2-2,2H12.6c-1.1,0-2-0.9-2-2v-7.3
	C10.6,132.5,11.5,131.6,12.6,131.6z"/>
<path id="Rectangle_2_copy_4-2" class="st8" d="M12.6,131.6h0.1l0,0V143l0,0h-0.1c-1.1,0-2-0.9-2-2v-7.3
	C10.6,132.5,11.5,131.6,12.6,131.6z"/>
<path id="Rectangle_2_copy_5" class="st5" d="M57.9,128.1h35.6c1.1,0,2,0.9,2,2v7.3c0,1.1-0.9,2-2,2H57.9c-1.1,0-2-0.9-2-2v-7.3
	C55.9,129,56.8,128.1,57.9,128.1z"/>
<path id="Rectangle_2_copy_5-2" class="st6" d="M57.9,128.1H58l0,0v11.3l0,0h-0.1c-1.1,0-2-0.9-2-2v-7.3
	C55.9,129,56.8,128.1,57.9,128.1z"/>
<path id="Rectangle_2_copy_7" class="st3" d="M12.6,111.1h35.6c1.1,0,2,0.9,2,2v12.4c0,1.1-0.9,2-2,2H12.6c-1.1,0-2-0.9-2-2v-12.4
	C10.6,112,11.5,111.1,12.6,111.1z"/>
<path id="Rectangle_2_copy_7-2" class="st4" d="M12.6,111.1h0.1l0,0v16.4l0,0h-0.1c-1.1,0-2-0.9-2-2v-12.4
	C10.6,112,11.5,111.1,12.6,111.1z"/>
<path id="Rectangle_2_copy_8" class="st9" d="M57.9,111.1h35.6c1.1,0,2,0.9,2,2v8.7c0,1.1-0.9,2-2,2H57.9c-1.1,0-2-0.9-2-2v-8.7
	C55.9,112,56.8,111.1,57.9,111.1z"/>
<path id="Rectangle_2_copy_8-2" class="st2" d="M57.9,111.1H58l0,0v12.7l0,0h-0.1c-1.1,0-2-0.9-2-2v-8.7
	C55.9,112,56.8,111.1,57.9,111.1z"/>
<path id="Rectangle_2_copy_6" class="st7" d="M103.2,129.5h35.6c1.1,0,2,0.9,2,2v4.5c0,1.1-0.9,2-2,2h-35.6c-1.1,0-2-0.9-2-2v-4.5
	C101.2,130.4,102.1,129.5,103.2,129.5z"/>
<path id="Rectangle_2_copy_6-2" class="st8" d="M103,129.5L103,129.5L103,129.5v8.5l0,0l0,0c-1,0-1.8-0.8-1.8-1.8v-4.8
	C101.2,130.3,102,129.5,103,129.5L103,129.5z"/>
<path id="Rectangle_2_copy_9" class="st10" d="M103.2,111.1h35.6c1.1,0,2,0.9,2,2v10.1c0,1.1-0.9,2-2,2h-35.6c-1.1,0-2-0.9-2-2
	v-10.1C101.2,112,102.1,111.1,103.2,111.1z"/>
<path id="Rectangle_2_copy_9-2" class="st11" d="M103,111.1L103,111.1L103,111.1v14.1l0,0l0,0c-1,0-1.8-0.8-1.8-1.8l0,0V113
	C101.2,112,102,111.1,103,111.1L103,111.1z"/>
<path id="Rectangle_2_copy_10" class="st3" d="M148.5,126.7h35.6c1.1,0,2,0.9,2,2v3.1c0,1.1-0.9,2-2,2h-35.6c-1.1,0-2-0.9-2-2v-3.1
	C146.5,127.6,147.4,126.7,148.5,126.7z"/>
<path id="Rectangle_2_copy_10-2" class="st4" d="M148.3,126.7L148.3,126.7L148.3,126.7l0,7.1l0,0h0c-1,0-1.9-0.8-1.9-1.9v-3.3
	C146.5,127.5,147.3,126.7,148.3,126.7L148.3,126.7z"/>
<path id="Rectangle_2_copy_10-3" class="st5" d="M148.5,111.1h35.6c1.1,0,2,0.9,2,2v7.3c0,1.1-0.9,2-2,2h-35.6c-1.1,0-2-0.9-2-2
	v-7.3C146.5,112,147.4,111.1,148.5,111.1z"/>
<path id="Rectangle_2_copy_10-4" class="st6" d="M148.3,111.1L148.3,111.1L148.3,111.1l0,11.3l0,0h0c-1,0-1.9-0.8-1.9-1.9V113
	C146.5,112,147.3,111.1,148.3,111.1z"/>
<path id="Rectangle_2_copy_11" class="st10" d="M193.8,129.5h35.6c1.1,0,2,0.9,2,2v5.9c0,1.1-0.9,2-2,2h-35.6c-1.1,0-2-0.9-2-2v-5.9
	C191.8,130.4,192.6,129.5,193.8,129.5z"/>
<path id="Rectangle_2_copy_11-2" class="st11" d="M193.6,129.5L193.6,129.5L193.6,129.5l0,9.9l0,0h0c-1,0-1.9-0.8-1.9-1.9v-6.2
	C191.7,130.3,192.6,129.5,193.6,129.5C193.6,129.5,193.6,129.5,193.6,129.5z"/>
<path id="Rectangle_2_copy_11-3" class="st3" d="M193.8,111.1h35.6c1.1,0,2,0.9,2,2v10.1c0,1.1-0.9,2-2,2h-35.6c-1.1,0-2-0.9-2-2
	v-10.1C191.8,112,192.6,111.1,193.8,111.1z"/>
<path id="Rectangle_2_copy_11-4" class="st4" d="M193.6,111.1L193.6,111.1L193.6,111.1l0,14.1l0,0h0c-1,0-1.9-0.8-1.9-1.9V113
	C191.7,112,192.6,111.1,193.6,111.1C193.6,111.1,193.6,111.1,193.6,111.1z"/>
<path id="Rectangle_2_copy_17" class="st8" d="M44.2,185.4h5.1c0.6,0,1,0.4,1,1v0.1c0,0.6-0.4,1-1,1h-5.1c-0.6,0-1-0.4-1-1v-0.1
	C43.2,185.9,43.6,185.4,44.2,185.4z"/>
<path id="Rectangle_2_copy_18" class="st1" d="M64.6,157.1h51.3c1.7,0,3,1.3,3,3v35.8c0,1.7-1.3,3-3,3H64.6c-1.7,0-3-1.3-3-3v-35.8
	C61.6,158.4,62.9,157.1,64.6,157.1z"/>
<path id="Rectangle_2_copy_18-2" class="st0" d="M67.8,165.6h44.8c1.1,0,2,0.9,2,2v9.4c0,1.1-0.9,2-2,2H67.8c-1.1,0-2-0.9-2-2v-9.4
	C65.8,166.5,66.7,165.6,67.8,165.6z"/>
<path id="Rectangle_2_copy_18-3" class="st6" d="M105.7,167.7h5.1c0.6,0,1,0.4,1,1v0.1c0,0.6-0.4,1-1,1h-5.1c-0.6,0-1-0.4-1-1v-0.1
	C104.7,168.2,105.2,167.7,105.7,167.7z"/>
<path id="Rectangle_2_copy_18-4" class="st0" d="M67.8,183.3h44.8c1.1,0,2,0.9,2,2v8c0,1.1-0.9,2-2,2H67.8c-1.1,0-2-0.9-2-2v-8
	C65.8,184.2,66.7,183.3,67.8,183.3z"/>
<path id="Rectangle_2_copy_18-5" class="st8" d="M105.7,185.4h5.1c0.6,0,1,0.4,1,1v0.1c0,0.6-0.4,1-1,1h-5.1c-0.6,0-1-0.4-1-1v-0.1
	C104.7,185.9,105.2,185.4,105.7,185.4z"/>
<path id="Rectangle_2_copy_19" class="st1" d="M126.1,157.1h51.3c1.7,0,3,1.3,3,3v35.8c0,1.7-1.3,3-3,3h-51.3c-1.7,0-3-1.3-3-3
	v-35.8C123.1,158.4,124.5,157.1,126.1,157.1z"/>
<path id="Rectangle_2_copy_19-2" class="st0" d="M128.7,187.5h44.8c1.1,0,2,0.9,2,2v3.8c0,1.1-0.9,2-2,2h-44.8c-1.1,0-2-0.9-2-2
	v-3.8C126.7,188.4,127.6,187.5,128.7,187.5z"/>
<path id="Rectangle_2_copy_20" class="st0" d="M128.7,165.6h44.8c1.1,0,2,0.9,2,2v13.7c0,1.1-0.9,2-2,2h-44.8c-1.1,0-2-0.9-2-2
	v-13.7C126.7,166.5,127.6,165.6,128.7,165.6z"/>
<path id="Rectangle_2_copy_19-3" class="st6" d="M166.6,189.7h5.1c0.6,0,1,0.4,1,1v0.1c0,0.6-0.4,1-1,1h-5.1c-0.6,0-1-0.4-1-1v-0.1
	C165.6,190.1,166,189.7,166.6,189.7z"/>
<path id="Rectangle_2_copy_19-4" class="st4" d="M166.6,167.7h5.1c0.6,0,1,0.4,1,1v0.1c0,0.6-0.4,1-1,1h-5.1c-0.6,0-1-0.4-1-1v-0.1
	C165.6,168.2,166,167.7,166.6,167.7z"/>
<path id="Rectangle_2_copy_21" class="st1" d="M187.7,157.1H239c1.7,0,3,1.3,3,3v35.8c0,1.7-1.3,3-3,3h-51.3c-1.7,0-3-1.3-3-3v-35.8
	C184.7,158.4,186,157.1,187.7,157.1z"/>
<path id="Rectangle_2_copy_21-2" class="st0" d="M190.9,177.6h44.8c1.1,0,2,0.9,2,2v13.7c0,1.1-0.9,2-2,2h-44.8c-1.1,0-2-0.9-2-2
	v-13.7C188.9,178.5,189.8,177.6,190.9,177.6z"/>
<path id="Rectangle_2_copy_21-3" class="st0" d="M191.1,165.6h44.8c1.1,0,2,0.9,2,2v3.8c0,1.1-0.9,2-2,2h-44.8c-1.1,0-2-0.9-2-2
	v-3.8C189.1,166.5,190,165.6,191.1,165.6z"/>
<path id="Rectangle_2_copy_21-4" class="st11" d="M228.8,179.8h5.1c0.6,0,1,0.4,1,1v0.1c0,0.6-0.4,1-1,1h-5.1c-0.6,0-1-0.4-1-1v-0.1
	C227.8,180.2,228.3,179.8,228.8,179.8z"/>
<path id="Rectangle_2_copy_21-5" class="st8" d="M228.8,167.7h5.1c0.6,0,1,0.4,1,1v0.1c0,0.6-0.4,1-1,1h-5.1c-0.6,0-1-0.4-1-1v-0.1
	C227.8,168.2,228.3,167.7,228.8,167.7z"/>
<path id="Rectangle_1_copy_5" class="st12" d="M145,60h65l0,0v10l0,0h-65c-2.8,0-5-2.2-5-5l0,0C140,62.2,142.2,60,145,60z"/>
<path id="Rectangle_1_copy_6" class="st12" d="M229,60h7c2.8,0,5,2.2,5,5l0,0c0,2.8-2.2,5-5,5h-7l0,0V60L229,60z"/>
<rect id="Rectangle_1_copy_7" x="220" y="60" class="st12" width="8" height="10"/>
<rect id="Rectangle_1_copy_8" x="211" y="60" class="st12" width="8" height="10"/>
<g class="st13">
	<path class="st14" d="M155.4,67.4v-3.6h1.3c0.2,0,0.4,0,0.5,0c0.2,0,0.3,0.1,0.4,0.2c0.1,0.1,0.2,0.2,0.3,0.3s0.1,0.3,0.1,0.5
		c0,0.3-0.1,0.6-0.3,0.8c-0.2,0.2-0.5,0.3-1,0.3h-0.9v1.5H155.4z M155.9,65.5h0.9c0.3,0,0.5-0.1,0.7-0.2c0.1-0.1,0.2-0.3,0.2-0.5
		c0-0.1,0-0.3-0.1-0.4c-0.1-0.1-0.2-0.2-0.3-0.2c-0.1,0-0.2,0-0.4,0h-0.9V65.5z"/>
	<path class="st14" d="M158.7,67.4v-3.6h0.4v3.6H158.7z"/>
	<path class="st14" d="M161.5,67.1c-0.2,0.1-0.3,0.2-0.5,0.3c-0.2,0.1-0.3,0.1-0.5,0.1c-0.3,0-0.5-0.1-0.7-0.2
		c-0.2-0.1-0.2-0.3-0.2-0.5c0-0.1,0-0.2,0.1-0.3c0.1-0.1,0.1-0.2,0.2-0.3c0.1-0.1,0.2-0.1,0.3-0.1c0.1,0,0.2,0,0.4-0.1
		c0.4,0,0.6-0.1,0.8-0.2c0-0.1,0-0.1,0-0.1c0-0.2,0-0.3-0.1-0.4c-0.1-0.1-0.3-0.1-0.5-0.1c-0.2,0-0.4,0-0.5,0.1
		c-0.1,0.1-0.2,0.2-0.2,0.4l-0.4-0.1c0-0.2,0.1-0.3,0.2-0.4c0.1-0.1,0.2-0.2,0.4-0.3c0.2-0.1,0.4-0.1,0.6-0.1c0.2,0,0.4,0,0.5,0.1
		c0.1,0.1,0.2,0.1,0.3,0.2c0.1,0.1,0.1,0.2,0.1,0.3c0,0.1,0,0.2,0,0.4v0.6c0,0.4,0,0.7,0,0.8c0,0.1,0.1,0.2,0.1,0.3h-0.5
		C161.5,67.3,161.5,67.2,161.5,67.1z M161.5,66.1c-0.2,0.1-0.4,0.1-0.7,0.2c-0.2,0-0.3,0.1-0.4,0.1c-0.1,0-0.1,0.1-0.2,0.1
		c0,0.1-0.1,0.1-0.1,0.2c0,0.1,0,0.2,0.1,0.3c0.1,0.1,0.2,0.1,0.4,0.1c0.2,0,0.3,0,0.5-0.1s0.2-0.2,0.3-0.3c0-0.1,0.1-0.2,0.1-0.4
		V66.1z"/>
	<path class="st14" d="M162.6,67.4v-2.6h0.4v0.4c0.2-0.3,0.5-0.4,0.8-0.4c0.2,0,0.3,0,0.4,0.1c0.1,0.1,0.2,0.1,0.3,0.2
		c0.1,0.1,0.1,0.2,0.1,0.3c0,0.1,0,0.2,0,0.4v1.6h-0.4v-1.6c0-0.2,0-0.3-0.1-0.4c0-0.1-0.1-0.2-0.2-0.2s-0.2-0.1-0.3-0.1
		c-0.2,0-0.3,0.1-0.5,0.2c-0.1,0.1-0.2,0.3-0.2,0.7v1.4H162.6z"/>
	<path class="st14" d="M165.3,68.4l0-0.4c0.1,0,0.2,0,0.3,0c0.1,0,0.2,0,0.2,0s0.1-0.1,0.1-0.1c0,0,0.1-0.2,0.1-0.3c0,0,0-0.1,0-0.1
		l-1-2.6h0.5l0.5,1.5c0.1,0.2,0.1,0.4,0.2,0.6c0.1-0.2,0.1-0.4,0.2-0.6l0.6-1.5h0.4l-1,2.6c-0.1,0.3-0.2,0.5-0.2,0.6
		c-0.1,0.1-0.2,0.3-0.3,0.3c-0.1,0.1-0.2,0.1-0.4,0.1C165.5,68.5,165.4,68.5,165.3,68.4z"/>
	<path class="st14" d="M168.3,67.4l-0.8-2.6h0.5l0.4,1.5l0.2,0.6c0,0,0.1-0.2,0.1-0.5l0.4-1.5h0.5l0.4,1.5l0.1,0.5l0.1-0.5l0.4-1.5
		h0.4l-0.8,2.6h-0.5l-0.4-1.6l-0.1-0.4l-0.5,2H168.3z"/>
	<path class="st14" d="M173.2,67.1c-0.2,0.1-0.3,0.2-0.5,0.3c-0.2,0.1-0.3,0.1-0.5,0.1c-0.3,0-0.5-0.1-0.7-0.2
		c-0.2-0.1-0.2-0.3-0.2-0.5c0-0.1,0-0.2,0.1-0.3c0.1-0.1,0.1-0.2,0.2-0.3s0.2-0.1,0.3-0.1c0.1,0,0.2,0,0.4-0.1
		c0.4,0,0.6-0.1,0.8-0.2c0-0.1,0-0.1,0-0.1c0-0.2,0-0.3-0.1-0.4c-0.1-0.1-0.3-0.1-0.5-0.1c-0.2,0-0.4,0-0.5,0.1s-0.2,0.2-0.2,0.4
		l-0.4-0.1c0-0.2,0.1-0.3,0.2-0.4s0.2-0.2,0.4-0.3c0.2-0.1,0.4-0.1,0.6-0.1c0.2,0,0.4,0,0.5,0.1c0.1,0.1,0.2,0.1,0.3,0.2
		s0.1,0.2,0.1,0.3c0,0.1,0,0.2,0,0.4v0.6c0,0.4,0,0.7,0,0.8s0.1,0.2,0.1,0.3h-0.5C173.2,67.3,173.2,67.2,173.2,67.1z M173.1,66.1
		c-0.2,0.1-0.4,0.1-0.7,0.2c-0.2,0-0.3,0.1-0.4,0.1c-0.1,0-0.1,0.1-0.2,0.1c0,0.1-0.1,0.1-0.1,0.2c0,0.1,0,0.2,0.1,0.3
		s0.2,0.1,0.4,0.1c0.2,0,0.3,0,0.5-0.1c0.1-0.1,0.2-0.2,0.3-0.3c0-0.1,0.1-0.2,0.1-0.4V66.1z"/>
	<path class="st14" d="M174.2,68.4l0-0.4c0.1,0,0.2,0,0.3,0c0.1,0,0.2,0,0.2,0s0.1-0.1,0.1-0.1c0,0,0.1-0.2,0.1-0.3c0,0,0-0.1,0-0.1
		l-1-2.6h0.5l0.5,1.5c0.1,0.2,0.1,0.4,0.2,0.6c0.1-0.2,0.1-0.4,0.2-0.6l0.6-1.5h0.4l-1,2.6c-0.1,0.3-0.2,0.5-0.2,0.6
		c-0.1,0.1-0.2,0.3-0.3,0.3c-0.1,0.1-0.2,0.1-0.4,0.1C174.4,68.5,174.3,68.5,174.2,68.4z"/>
	<path class="st14" d="M180.8,66.2l0.5,0.1c-0.1,0.4-0.3,0.7-0.5,0.9s-0.6,0.3-0.9,0.3c-0.4,0-0.7-0.1-0.9-0.2
		c-0.2-0.2-0.4-0.4-0.6-0.7c-0.1-0.3-0.2-0.6-0.2-1c0-0.4,0.1-0.7,0.2-1s0.3-0.5,0.6-0.6c0.3-0.1,0.6-0.2,0.9-0.2
		c0.4,0,0.7,0.1,0.9,0.3c0.2,0.2,0.4,0.4,0.5,0.8l-0.5,0.1c-0.1-0.3-0.2-0.4-0.4-0.6s-0.4-0.2-0.6-0.2c-0.3,0-0.5,0.1-0.7,0.2
		s-0.3,0.3-0.4,0.5c-0.1,0.2-0.1,0.5-0.1,0.7c0,0.3,0,0.6,0.1,0.8c0.1,0.2,0.2,0.4,0.4,0.5s0.4,0.2,0.6,0.2c0.3,0,0.5-0.1,0.7-0.2
		C180.6,66.7,180.7,66.5,180.8,66.2z"/>
	<path class="st14" d="M183.4,67.1c-0.2,0.1-0.3,0.2-0.5,0.3c-0.2,0.1-0.3,0.1-0.5,0.1c-0.3,0-0.5-0.1-0.7-0.2
		c-0.2-0.1-0.2-0.3-0.2-0.5c0-0.1,0-0.2,0.1-0.3c0.1-0.1,0.1-0.2,0.2-0.3s0.2-0.1,0.3-0.1c0.1,0,0.2,0,0.4-0.1
		c0.4,0,0.6-0.1,0.8-0.2c0-0.1,0-0.1,0-0.1c0-0.2,0-0.3-0.1-0.4c-0.1-0.1-0.3-0.1-0.5-0.1c-0.2,0-0.4,0-0.5,0.1s-0.2,0.2-0.2,0.4
		l-0.4-0.1c0-0.2,0.1-0.3,0.2-0.4s0.2-0.2,0.4-0.3c0.2-0.1,0.4-0.1,0.6-0.1c0.2,0,0.4,0,0.5,0.1c0.1,0.1,0.2,0.1,0.3,0.2
		s0.1,0.2,0.1,0.3c0,0.1,0,0.2,0,0.4v0.6c0,0.4,0,0.7,0,0.8s0.1,0.2,0.1,0.3h-0.5C183.5,67.3,183.5,67.2,183.4,67.1z M183.4,66.1
		c-0.2,0.1-0.4,0.1-0.7,0.2c-0.2,0-0.3,0.1-0.4,0.1c-0.1,0-0.1,0.1-0.2,0.1c0,0.1-0.1,0.1-0.1,0.2c0,0.1,0,0.2,0.1,0.3
		s0.2,0.1,0.4,0.1c0.2,0,0.3,0,0.5-0.1c0.1-0.1,0.2-0.2,0.3-0.3c0-0.1,0.1-0.2,0.1-0.4V66.1z"/>
	<path class="st14" d="M184.5,67.4v-3.6h0.4v3.6H184.5z"/>
	<path class="st14" d="M187.4,66.6l0.5,0.1c-0.1,0.3-0.2,0.5-0.4,0.6c-0.2,0.1-0.4,0.2-0.7,0.2c-0.4,0-0.7-0.1-0.9-0.4
		c-0.2-0.2-0.3-0.6-0.3-1c0-0.4,0.1-0.8,0.3-1s0.5-0.4,0.9-0.4c0.3,0,0.6,0.1,0.8,0.4c0.2,0.2,0.3,0.6,0.3,1c0,0,0,0.1,0,0.1H186
		c0,0.3,0.1,0.5,0.2,0.7c0.1,0.2,0.3,0.2,0.5,0.2c0.2,0,0.3,0,0.4-0.1C187.3,66.9,187.4,66.8,187.4,66.6z M186,65.9h1.4
		c0-0.2-0.1-0.4-0.2-0.5c-0.1-0.2-0.3-0.3-0.5-0.3c-0.2,0-0.4,0.1-0.5,0.2C186.1,65.5,186,65.6,186,65.9z"/>
	<path class="st14" d="M188.4,67.4v-2.6h0.4v0.4c0.2-0.3,0.5-0.4,0.8-0.4c0.2,0,0.3,0,0.4,0.1c0.1,0.1,0.2,0.1,0.3,0.2
		c0.1,0.1,0.1,0.2,0.1,0.3c0,0.1,0,0.2,0,0.4v1.6h-0.4v-1.6c0-0.2,0-0.3-0.1-0.4c0-0.1-0.1-0.2-0.2-0.2s-0.2-0.1-0.3-0.1
		c-0.2,0-0.3,0.1-0.5,0.2c-0.1,0.1-0.2,0.3-0.2,0.7v1.4H188.4z"/>
	<path class="st14" d="M192.9,67.4v-0.3c-0.2,0.3-0.4,0.4-0.7,0.4c-0.2,0-0.4-0.1-0.6-0.2c-0.2-0.1-0.3-0.3-0.4-0.5
		c-0.1-0.2-0.1-0.4-0.1-0.7c0-0.3,0-0.5,0.1-0.7c0.1-0.2,0.2-0.4,0.4-0.5c0.2-0.1,0.4-0.2,0.6-0.2c0.2,0,0.3,0,0.4,0.1
		c0.1,0.1,0.2,0.2,0.3,0.3v-1.3h0.4v3.6H192.9z M191.5,66.1c0,0.3,0.1,0.6,0.2,0.7c0.1,0.2,0.3,0.2,0.5,0.2c0.2,0,0.4-0.1,0.5-0.2
		c0.1-0.2,0.2-0.4,0.2-0.7c0-0.4-0.1-0.6-0.2-0.8s-0.3-0.2-0.5-0.2c-0.2,0-0.4,0.1-0.5,0.2C191.6,65.5,191.5,65.8,191.5,66.1z"/>
	<path class="st14" d="M195.7,67.1c-0.2,0.1-0.3,0.2-0.5,0.3c-0.2,0.1-0.3,0.1-0.5,0.1c-0.3,0-0.5-0.1-0.7-0.2
		c-0.2-0.1-0.2-0.3-0.2-0.5c0-0.1,0-0.2,0.1-0.3c0.1-0.1,0.1-0.2,0.2-0.3s0.2-0.1,0.3-0.1c0.1,0,0.2,0,0.4-0.1
		c0.4,0,0.6-0.1,0.8-0.2c0-0.1,0-0.1,0-0.1c0-0.2,0-0.3-0.1-0.4c-0.1-0.1-0.3-0.1-0.5-0.1c-0.2,0-0.4,0-0.5,0.1s-0.2,0.2-0.2,0.4
		l-0.4-0.1c0-0.2,0.1-0.3,0.2-0.4s0.2-0.2,0.4-0.3c0.2-0.1,0.4-0.1,0.6-0.1c0.2,0,0.4,0,0.5,0.1c0.1,0.1,0.2,0.1,0.3,0.2
		s0.1,0.2,0.1,0.3c0,0.1,0,0.2,0,0.4v0.6c0,0.4,0,0.7,0,0.8s0.1,0.2,0.1,0.3h-0.5C195.7,67.3,195.7,67.2,195.7,67.1z M195.6,66.1
		c-0.2,0.1-0.4,0.1-0.7,0.2c-0.2,0-0.3,0.1-0.4,0.1c-0.1,0-0.1,0.1-0.2,0.1c0,0.1-0.1,0.1-0.1,0.2c0,0.1,0,0.2,0.1,0.3
		s0.2,0.1,0.4,0.1c0.2,0,0.3,0,0.5-0.1c0.1-0.1,0.2-0.2,0.3-0.3c0-0.1,0.1-0.2,0.1-0.4V66.1z"/>
	<path class="st14" d="M196.8,67.4v-2.6h0.4v0.4c0.1-0.2,0.2-0.3,0.3-0.4c0.1-0.1,0.2-0.1,0.3-0.1c0.1,0,0.3,0,0.5,0.1l-0.2,0.4
		c-0.1-0.1-0.2-0.1-0.3-0.1c-0.1,0-0.2,0-0.3,0.1s-0.1,0.1-0.2,0.2c0,0.2-0.1,0.3-0.1,0.5v1.4H196.8z"/>
</g>
<path class="st0" d="M203,64h-1l2,2h1l2-2h-1l-1,1h-1L203,64z"/>
<g id="Arrow">
	<path class="st16" d="M161,0c0,0,26-1,26,48"/>
	<path class="st16" d="M181.1,40c0,0,2.3,0.3,4.9,7s0-5.3,3-12.1"/>
</g>
<g>
	<path class="st0" d="M149,62c-1.7,0-3,1.3-3,3c0,0.6,0.2,1.1,0.4,1.5V65c0-1.4,1.2-2.6,2.6-2.6s2.6,1.2,2.6,2.6s-1.2,2.6-2.6,2.6
		c-0.3,0-0.6-0.1-0.9-0.2v0.5c0.3,0.1,0.6,0.1,0.9,0.1c1.7,0,3-1.3,3-3S150.7,62,149,62z"/>
	<path class="st0" d="M149,67.1c1.2,0,2.1-1,2.1-2.1s-1-2.1-2.1-2.1s-2.1,1-2.1,2.1v2.1c0.2,0.3,0.5,0.5,0.9,0.6v-1l0.6,0.3
		C148.5,67.1,148.8,67.1,149,67.1z M149.9,64.1h0.4v0.4h-0.4V64.1z M149.9,65h0.4v0.4h-0.4V65z M149,64.1h0.4v0.4H149V64.1z M149,65
		h0.4v0.4H149V65z M149,65.9h0.4v0.4H149V65.9z M148.1,65h0.4v0.4h-0.4V65z M148.1,65.9h0.4v0.4h-0.4V65.9z"/>
</g>
</svg>
