<?xml version="1.0" encoding="utf-8"?>
<!-- Generator: Adobe Illustrator 21.1.0, SVG Export Plug-In . SVG Version: 6.00 Build 0)  -->
<svg version="1.1" id="Layer_1" xmlns="http://www.w3.org/2000/svg" xmlns:xlink="http://www.w3.org/1999/xlink" x="0px" y="0px"
	 viewBox="0 0 242 122" width="242" style="enable-background:new 0 0 242 122;" xml:space="preserve">
<style type="text/css">
	.st0{fill:#FFFFFF;}
	.st1{opacity:0.5;fill:#64BB51;enable-background:new    ;}
	.st2{fill:#64BB51;}
	.st3{opacity:0.5;fill:#0779BE;enable-background:new    ;}
	.st4{fill:#0779BE;}
	.st5{opacity:0.5;fill:#16BFDD;enable-background:new    ;}
	.st6{fill:#16BFDD;}
	.st7{opacity:0.5;fill:#F0D511;enable-background:new    ;}
	.st8{fill:#F0D511;}
	.st9{fill:#CED8DB;}
	.st10{fill:#EB5A46;}
	.st11{opacity:0.5;fill:#EB5A46;enable-background:new    ;}
</style>
<path class="st0" d="M241,75H1c-0.6,0-1-0.4-1-1V1c0-0.6,0.4-1,1-1h240c0.6,0,1,0.4,1,1v73C242,74.6,241.6,75,241,75z"/>
<path class="st1" d="M186,48h-38c-0.6,0-1-0.4-1-1V37c0-0.6,0.4-1,1-1h38c0.6,0,1,0.4,1,1v10C187,47.6,186.6,48,186,48z"/>
<path class="st2" d="M149,48h-1c-0.6,0-1-0.4-1-1V37c0-0.6,0.4-1,1-1h1V48z"/>
<path class="st3" d="M232,50h-38c-0.6,0-1-0.4-1-1V37c0-0.6,0.4-1,1-1h38c0.6,0,1,0.4,1,1v12C233,49.6,232.6,50,232,50z"/>
<path class="st4" d="M195,50h-1c-0.6,0-1-0.4-1-1V37c0-0.6,0.4-1,1-1h1V50z"/>
<path class="st5" d="M232,64h-38c-0.6,0-1-0.4-1-1v-8c0-0.6,0.4-1,1-1h38c0.6,0,1,0.4,1,1v8C233,63.6,232.6,64,232,64z"/>
<path class="st6" d="M195,64h-1c-0.6,0-1-0.4-1-1v-8c0-0.6,0.4-1,1-1h1V64z"/>
<path class="st3" d="M186,60h-38c-0.6,0-1-0.4-1-1v-6c0-0.6,0.4-1,1-1h38c0.6,0,1,0.4,1,1v6C187,59.6,186.6,60,186,60z"/>
<path class="st4" d="M149,60h-1c-0.6,0-1-0.4-1-1v-6c0-0.6,0.4-1,1-1h1V60z"/>
<path class="st7" d="M140,62h-38c-0.6,0-1-0.4-1-1v-6c0-0.6,0.4-1,1-1h38c0.6,0,1,0.4,1,1v6C141,61.6,140.6,62,140,62z"/>
<path class="st8" d="M103,62h-1c-0.6,0-1-0.4-1-1v-6c0-0.6,0.4-1,1-1h1V62z"/>
<path class="st1" d="M232,30H57c-0.6,0-1-0.4-1-1v-4c0-0.6,0.4-1,1-1h175c0.6,0,1,0.4,1,1v4C233,29.6,232.6,30,232,30z"/>
<path class="st2" d="M58,30h-1c-0.6,0-1-0.4-1-1v-4c0-0.6,0.4-1,1-1h1V30z"/>
<path class="st9" d="M241,122h-54c-0.6,0-1-0.4-1-1V82c0-0.6,0.4-1,1-1h54c0.6,0,1,0.4,1,1v39C242,121.6,241.6,122,241,122z"/>
<path class="st0" d="M191,88h46c0.6,0,1,0.4,1,1v6c0,0.6-0.4,1-1,1h-46c-0.6,0-1-0.4-1-1v-6C190,88.4,190.4,88,191,88z"/>
<path class="st9" d="M55,122H1c-0.6,0-1-0.4-1-1V82c0-0.6,0.4-1,1-1h54c0.6,0,1,0.4,1,1v39C56,121.6,55.6,122,55,122z"/>
<path class="st0" d="M51,101H5c-0.6,0-1-0.4-1-1V89c0-0.6,0.4-1,1-1h46c0.6,0,1,0.4,1,1v11C52,100.6,51.6,101,51,101z"/>
<path class="st10" d="M49,92h-6c-0.6,0-1-0.4-1-1l0,0c0-0.6,0.4-1,1-1h6c0.6,0,1,0.4,1,1l0,0C50,91.6,49.6,92,49,92z"/>
<path class="st0" d="M51,118H5c-0.6,0-1-0.4-1-1v-11c0-0.6,0.4-1,1-1h46c0.6,0,1,0.4,1,1v11C52,117.6,51.6,118,51,118z"/>
<path class="st8" d="M49,109h-6c-0.6,0-1-0.4-1-1l0,0c0-0.6,0.4-1,1-1h6c0.6,0,1,0.4,1,1l0,0C50,108.6,49.6,109,49,109z"/>
<path class="st9" d="M117,122H63c-0.6,0-1-0.4-1-1V82c0-0.6,0.4-1,1-1h54c0.6,0,1,0.4,1,1v39C118,121.6,117.6,122,117,122z"/>
<path class="st0" d="M113,101H67c-0.6,0-1-0.4-1-1V89c0-0.6,0.4-1,1-1h46c0.6,0,1,0.4,1,1v11C114,100.6,113.6,101,113,101z"/>
<path class="st2" d="M110,92h-6c-0.6,0-1-0.4-1-1l0,0c0-0.6,0.4-1,1-1h6c0.6,0,1,0.4,1,1l0,0C111,91.6,110.6,92,110,92z"/>
<path class="st0" d="M113,118H67c-0.6,0-1-0.4-1-1v-11c0-0.6,0.4-1,1-1h46c0.6,0,1,0.4,1,1v11C114,117.6,113.6,118,113,118z"/>
<path class="st8" d="M110,109h-6c-0.6,0-1-0.4-1-1l0,0c0-0.6,0.4-1,1-1h6c0.6,0,1,0.4,1,1l0,0C111,108.6,110.6,109,110,109z"/>
<path class="st9" d="M179,122h-54c-0.6,0-1-0.4-1-1V82c0-0.6,0.4-1,1-1h54c0.6,0,1,0.4,1,1v39C180,121.6,179.6,122,179,122z"/>
<path class="st0" d="M175,106h-46c-0.6,0-1-0.4-1-1V89c0-0.6,0.4-1,1-1h46c0.6,0,1,0.4,1,1v16C176,105.6,175.6,106,175,106z"/>
<path class="st4" d="M173,92h-6c-0.6,0-1-0.4-1-1l0,0c0-0.6,0.4-1,1-1h6c0.6,0,1,0.4,1,1l0,0C174,91.6,173.6,92,173,92z"/>
<path class="st0" d="M175,118h-46c-0.6,0-1-0.4-1-1v-6c0-0.6,0.4-1,1-1h46c0.6,0,1,0.4,1,1v6C176,117.6,175.6,118,175,118z"/>
<path class="st2" d="M173,114h-6c-0.6,0-1-0.4-1-1l0,0c0-0.6,0.4-1,1-1h6c0.6,0,1,0.4,1,1l0,0C174,113.6,173.6,114,173,114z"/>
<path class="st0" d="M191,100h46c0.6,0,1,0.4,1,1v16c0,0.6-0.4,1-1,1h-46c-0.6,0-1-0.4-1-1v-16C190,100.4,190.4,100,191,100z"/>
<path class="st8" d="M235,92h-6c-0.6,0-1-0.4-1-1l0,0c0-0.6,0.4-1,1-1h6c0.6,0,1,0.4,1,1l0,0C236,91.6,235.6,92,235,92z"/>
<path class="st6" d="M235,114h-6c-0.6,0-1-0.4-1-1l0,0c0-0.6,0.4-1,1-1h6c0.6,0,1,0.4,1,1l0,0C236,113.6,235.6,114,235,114z"/>
<path class="st9" d="M242,8H0V1c0-0.6,0.4-1,1-1h240c0.6,0,1,0.4,1,1V8z"/>
<path class="st3" d="M184,20H10c-0.6,0-1-0.4-1-1v-4c0-0.6,0.4-1,1-1h174c0.6,0,1,0.4,1,1v4C185,19.6,184.6,20,184,20z"/>
<path class="st4" d="M11,20h-1c-0.6,0-1-0.4-1-1v-4c0-0.6,0.4-1,1-1h1V20z"/>
<path class="st3" d="M49,37v16c0,0.5-0.5,1-1,1H10c-0.5,0-1-0.5-1-1V37c0-0.5,0.5-1,1-1h38C48.5,36,49,36.5,49,37z"/>
<path class="st4" d="M11,54h-1c-0.6,0-1-0.4-1-1V37c0-0.6,0.4-1,1-1h1V54z"/>
<path class="st11" d="M94,49H56c-0.6,0-1-0.4-1-1V37c0-0.6,0.4-1,1-1h38c0.6,0,1,0.4,1,1v11C95,48.6,94.6,49,94,49z"/>
<path class="st10" d="M57,49h-1c-0.6,0-1-0.4-1-1V37c0-0.6,0.4-1,1-1h1V49z"/>
<path class="st5" d="M140,50h-38c-0.6,0-1-0.4-1-1V37c0-0.6,0.4-1,1-1h38c0.6,0,1,0.4,1,1v12C141,49.6,140.6,50,140,50z"/>
<path class="st6" d="M103,50h-1c-0.6,0-1-0.4-1-1V37c0-0.6,0.4-1,1-1h1V50z"/>
<path class="st1" d="M94,65H56c-0.6,0-1-0.4-1-1V54c0-0.6,0.4-1,1-1h38c0.6,0,1,0.4,1,1v10C95,64.6,94.6,65,94,65z"/>
<path class="st2" d="M57,65h-1c-0.6,0-1-0.4-1-1V54c0-0.6,0.4-1,1-1h1V65z"/>
<path class="st7" d="M48,69H10c-0.6,0-1-0.4-1-1v-9c0-0.6,0.4-1,1-1h38c0.6,0,1,0.4,1,1v9C49,68.6,48.6,69,48,69z"/>
<path class="st8" d="M11,69h-1c-0.6,0-1-0.4-1-1v-9c0-0.6,0.4-1,1-1h1V69z"/>
</svg>
