<?xml version="1.0" encoding="utf-8"?>
<!-- Generator: Adobe Illustrator 21.0.2, SVG Export Plug-In . SVG Version: 6.00 Build 0)  -->
<svg version="1.1" id="Layer_1" xmlns:sketch="http://www.bohemiancoding.com/sketch/ns"
	 xmlns="http://www.w3.org/2000/svg" xmlns:xlink="http://www.w3.org/1999/xlink" x="0px" y="0px" viewBox="0 0 200 200"
	 style="enable-background:new 0 0 200 200;" xml:space="preserve">
<style type="text/css">
	.st0{fill:#FFFFFF;}
</style>
<title>trello-mark-white</title>
<desc>Created with Sketch.</desc>
<path class="st0" d="M175,0H25C11.2,0,0,11.2,0,25v150c0,13.8,11.2,25,25,25h150c13.8,0,25-11.2,25-25V25C200,11.2,188.8,0,175,0z
	 M87,151.5c0,6.6-5.4,12-12,12H38c-6.6,0-12-5.4-12-12V38c0-6.6,5.4-12,12-12h37c6.6,0,12,5.4,12,12V151.5z M174,101.5
	c0,6.6-5.4,12-12,12h-37c-6.6,0-12-5.4-12-12V38c0-6.6,5.4-12,12-12h37c6.6,0,12,5.4,12,12V101.5z"/>
</svg>
